<?xml version="1.0" encoding="iso-8859-1"?>
<!-- Generator: Adobe Illustrator 22.0.0, SVG Export Plug-In . SVG Version: 6.00 Build 0)  -->
<svg version="1.1" id="OBJECTS"
	 xmlns="http://www.w3.org/2000/svg" xmlns:xlink="http://www.w3.org/1999/xlink" xmlns:a="http://ns.adobe.com/AdobeSVGViewerExtensions/3.0/"
	 x="0px" y="0px" viewBox="0 0 500 500" enable-background="new 0 0 500 500" xml:space="preserve">
<g>
	<g>
		<g>
			<path fill-rule="evenodd" clip-rule="evenodd" fill="#AE9E8C" d="M278.794,95.188c3.75,0,6.808-3.06,6.808-6.809
				c0-3.75-3.058-6.809-6.808-6.809s-6.809,3.059-6.809,6.809C271.985,92.129,275.044,95.188,278.794,95.188z"/>
			<path fill-rule="evenodd" clip-rule="evenodd" fill="#AE9E8C" d="M278.45,79.64c0-0.189,0.153-0.342,0.344-0.342
				c0.19,0,0.344,0.153,0.344,0.342v2.763c0,0.189-0.154,0.342-0.344,0.342c-0.19,0-0.344-0.153-0.344-0.342V79.64L278.45,79.64z
				 M276.201,80.026c-0.049-0.183,0.059-0.372,0.242-0.42c0.183-0.048,0.37,0.062,0.419,0.243l0.715,2.669
				c0.049,0.181-0.06,0.37-0.242,0.419c-0.183,0.048-0.37-0.06-0.419-0.243L276.201,80.026L276.201,80.026z M280.725,79.849
				c0.049-0.181,0.237-0.291,0.42-0.243c0.183,0.048,0.291,0.237,0.242,0.42l-0.716,2.667c-0.049,0.183-0.236,0.291-0.419,0.243
				c-0.183-0.049-0.291-0.238-0.242-0.419L280.725,79.849z"/>
			<path fill-rule="evenodd" clip-rule="evenodd" fill="#AE9E8C" d="M286.19,83.712c0.165-0.094,0.374-0.038,0.469,0.125
				c0.096,0.165,0.038,0.374-0.125,0.47l-2.392,1.38c-0.165,0.094-0.374,0.038-0.469-0.126c-0.095-0.165-0.039-0.374,0.125-0.468
				L286.19,83.712L286.19,83.712z M284.731,81.957l-1.952,1.952c-0.135,0.134-0.135,0.353-0.002,0.485
				c0.135,0.134,0.352,0.134,0.485,0l1.952-1.952c0.134-0.134,0.134-0.351,0.001-0.485
				C285.082,81.823,284.865,81.823,284.731,81.957L284.731,81.957z M287.146,85.786l-2.668,0.715
				c-0.182,0.049-0.29,0.238-0.241,0.42c0.048,0.182,0.237,0.291,0.42,0.241l2.667-0.714c0.183-0.05,0.291-0.237,0.242-0.42
				C287.517,85.846,287.329,85.738,287.146,85.786z"/>
			<path fill-rule="evenodd" clip-rule="evenodd" fill="#AE9E8C" d="M286.534,92.452c0.163,0.094,0.221,0.305,0.125,0.469
				c-0.095,0.165-0.304,0.219-0.469,0.125l-2.392-1.38c-0.164-0.096-0.22-0.305-0.125-0.468c0.095-0.164,0.304-0.221,0.469-0.127
				L286.534,92.452L286.534,92.452z M287.324,90.311l-2.667-0.715c-0.183-0.05-0.37,0.059-0.42,0.241
				c-0.049,0.183,0.06,0.372,0.242,0.42l2.667,0.715c0.183,0.049,0.37-0.06,0.42-0.242
				C287.615,90.548,287.507,90.359,287.324,90.311L287.324,90.311z M285.215,94.316l-1.952-1.952c-0.133-0.134-0.351-0.134-0.483,0
				c-0.135,0.132-0.135,0.351,0,0.485l1.952,1.952c0.134,0.134,0.351,0.134,0.484,0C285.349,94.668,285.349,94.45,285.215,94.316z"
				/>
			<path fill-rule="evenodd" clip-rule="evenodd" fill="#AE9E8C" d="M279.138,97.119c0,0.189-0.154,0.344-0.344,0.344
				c-0.19,0-0.344-0.155-0.344-0.344v-2.762c0-0.189,0.153-0.343,0.344-0.343c0.19,0,0.344,0.154,0.344,0.343V97.119L279.138,97.119
				z M281.387,96.733c0.049,0.181-0.06,0.37-0.242,0.419c-0.183,0.049-0.371-0.06-0.42-0.243l-0.715-2.667
				c-0.049-0.183,0.06-0.37,0.242-0.42c0.183-0.049,0.372,0.06,0.42,0.243L281.387,96.733L281.387,96.733z M276.863,96.909
				c-0.05,0.183-0.237,0.291-0.42,0.243c-0.183-0.048-0.291-0.237-0.242-0.419l0.715-2.668c0.049-0.183,0.237-0.292,0.42-0.243
				c0.183,0.05,0.291,0.237,0.242,0.42L276.863,96.909z"/>
			<path fill-rule="evenodd" clip-rule="evenodd" fill="#AE9E8C" d="M271.397,93.046c-0.164,0.094-0.375,0.04-0.47-0.125
				c-0.095-0.164-0.038-0.374,0.127-0.469l2.391-1.381c0.164-0.095,0.374-0.037,0.469,0.127c0.095,0.163,0.038,0.372-0.125,0.468
				L271.397,93.046L271.397,93.046z M272.857,94.803l1.952-1.954c0.134-0.133,0.134-0.351,0-0.485c-0.133-0.133-0.352-0.133-0.484,0
				l-1.953,1.953c-0.135,0.133-0.135,0.35,0,0.484C272.505,94.936,272.723,94.936,272.857,94.803L272.857,94.803z M270.441,90.972
				l2.667-0.715c0.183-0.048,0.291-0.236,0.243-0.419c-0.05-0.183-0.238-0.291-0.421-0.242l-2.667,0.715
				c-0.183,0.048-0.291,0.237-0.242,0.419C270.069,90.914,270.259,91.022,270.441,90.972z"/>
			<path fill-rule="evenodd" clip-rule="evenodd" fill="#AE9E8C" d="M271.055,84.308c-0.165-0.096-0.222-0.305-0.127-0.47
				c0.095-0.164,0.306-0.22,0.47-0.125l2.392,1.382c0.163,0.094,0.22,0.304,0.125,0.468c-0.095,0.164-0.305,0.22-0.469,0.126
				L271.055,84.308L271.055,84.308z M270.264,86.449l2.667,0.715c0.183,0.05,0.371-0.06,0.421-0.242
				c0.048-0.183-0.061-0.371-0.243-0.42l-2.667-0.713c-0.183-0.05-0.372,0.06-0.42,0.241
				C269.972,86.211,270.081,86.4,270.264,86.449L270.264,86.449z M272.372,82.442l1.952,1.953c0.134,0.133,0.351,0.133,0.485,0
				c0.134-0.134,0.134-0.351,0-0.485l-1.952-1.954c-0.135-0.133-0.353-0.133-0.485,0.002
				C272.237,82.091,272.237,82.31,272.372,82.442z"/>
			<path fill-rule="evenodd" clip-rule="evenodd" fill="#BCAE9A" d="M278.099,92.678c2.688,0,4.88-2.191,4.88-4.879
				c0-2.688-2.192-4.878-4.88-4.878c-2.687,0-4.879,2.191-4.879,4.878C273.22,90.487,275.412,92.678,278.099,92.678z"/>
			<path fill-rule="evenodd" clip-rule="evenodd" fill="#C6B8A2" d="M277.146,88.234c1.028,0,1.867-0.839,1.867-1.867
				c0-1.028-0.839-1.868-1.867-1.868c-1.027,0-1.866,0.84-1.866,1.868C275.279,87.395,276.118,88.234,277.146,88.234z"/>
		</g>
		<g>
			<path fill-rule="evenodd" clip-rule="evenodd" fill="#AE9E8C" d="M414.429,285.605c3.75,0,6.809-3.057,6.809-6.808
				c0-3.749-3.059-6.808-6.809-6.808s-6.808,3.059-6.808,6.808C407.621,282.549,410.679,285.605,414.429,285.605z"/>
			<path fill-rule="evenodd" clip-rule="evenodd" fill="#AE9E8C" d="M414.087,270.06c0-0.19,0.152-0.345,0.342-0.345
				c0.19,0,0.344,0.155,0.344,0.345v2.76c0,0.189-0.153,0.345-0.344,0.345c-0.189,0-0.342-0.155-0.342-0.345V270.06L414.087,270.06z
				 M411.836,270.445c-0.049-0.182,0.061-0.371,0.242-0.419c0.183-0.049,0.371,0.059,0.42,0.242l0.715,2.666
				c0.049,0.184-0.06,0.373-0.242,0.422c-0.183,0.048-0.37-0.062-0.42-0.243L411.836,270.445L411.836,270.445z M416.36,270.269
				c0.049-0.184,0.236-0.291,0.419-0.242c0.183,0.048,0.292,0.237,0.242,0.419l-0.715,2.668c-0.049,0.182-0.236,0.291-0.42,0.243
				c-0.182-0.049-0.291-0.238-0.241-0.422L416.36,270.269z"/>
			<path fill-rule="evenodd" clip-rule="evenodd" fill="#AE9E8C" d="M421.826,274.132c0.163-0.094,0.374-0.038,0.469,0.126
				c0.095,0.163,0.038,0.372-0.125,0.467l-2.393,1.382c-0.164,0.094-0.373,0.038-0.469-0.125c-0.095-0.164-0.038-0.376,0.126-0.471
				L421.826,274.132L421.826,274.132z M420.367,272.375l-1.952,1.954c-0.135,0.133-0.135,0.35-0.002,0.485
				c0.135,0.133,0.352,0.133,0.485,0l1.952-1.954c0.134-0.133,0.134-0.35,0-0.485C420.718,272.242,420.5,272.242,420.367,272.375
				L420.367,272.375z M422.781,276.206l-2.667,0.712c-0.183,0.052-0.291,0.237-0.243,0.422c0.05,0.181,0.238,0.291,0.421,0.242
				l2.668-0.715c0.182-0.049,0.291-0.237,0.241-0.419C423.152,276.265,422.964,276.157,422.781,276.206z"/>
			<path fill-rule="evenodd" clip-rule="evenodd" fill="#AE9E8C" d="M422.17,282.87c0.163,0.095,0.22,0.305,0.125,0.471
				c-0.095,0.163-0.306,0.219-0.469,0.125l-2.392-1.382c-0.164-0.095-0.221-0.304-0.126-0.47c0.096-0.163,0.305-0.22,0.469-0.125
				L422.17,282.87L422.17,282.87z M422.96,280.728l-2.667-0.716c-0.183-0.048-0.372,0.061-0.42,0.243
				c-0.05,0.184,0.059,0.37,0.242,0.421l2.667,0.715c0.182,0.049,0.37-0.061,0.419-0.242
				C423.251,280.966,423.143,280.776,422.96,280.728L422.96,280.728z M420.851,284.734l-1.952-1.953
				c-0.134-0.133-0.35-0.133-0.483,0c-0.135,0.136-0.135,0.352,0,0.485l1.952,1.953c0.133,0.133,0.351,0.133,0.485,0
				C420.984,285.087,420.984,284.867,420.851,284.734z"/>
			<path fill-rule="evenodd" clip-rule="evenodd" fill="#AE9E8C" d="M414.772,287.538c0,0.189-0.153,0.343-0.344,0.343
				c-0.189,0-0.342-0.153-0.342-0.343v-2.763c0-0.188,0.152-0.342,0.342-0.342c0.19,0,0.344,0.153,0.344,0.342V287.538
				L414.772,287.538z M417.021,287.15c0.05,0.184-0.06,0.373-0.242,0.421c-0.182,0.049-0.37-0.061-0.419-0.242l-0.715-2.669
				c-0.049-0.181,0.06-0.37,0.242-0.418c0.183-0.049,0.372,0.059,0.42,0.242L417.021,287.15L417.021,287.15z M412.498,287.329
				c-0.049,0.182-0.236,0.291-0.419,0.242c-0.183-0.048-0.291-0.237-0.242-0.421l0.715-2.666c0.049-0.184,0.236-0.291,0.419-0.242
				c0.183,0.048,0.291,0.237,0.242,0.418L412.498,287.329z"/>
			<path fill-rule="evenodd" clip-rule="evenodd" fill="#AE9E8C" d="M407.032,283.466c-0.165,0.094-0.374,0.038-0.469-0.125
				c-0.095-0.166-0.038-0.376,0.125-0.471l2.393-1.381c0.164-0.095,0.374-0.038,0.469,0.125c0.095,0.166,0.038,0.375-0.126,0.47
				L407.032,283.466L407.032,283.466z M408.491,285.22l1.954-1.951c0.133-0.135,0.133-0.352,0-0.484
				c-0.135-0.136-0.352-0.136-0.485,0l-1.952,1.95c-0.134,0.136-0.134,0.353,0,0.485
				C408.141,285.353,408.358,285.353,408.491,285.22L408.491,285.22z M406.076,281.392l2.668-0.715
				c0.183-0.048,0.291-0.237,0.241-0.421c-0.048-0.182-0.235-0.291-0.42-0.24l-2.667,0.713c-0.183,0.051-0.291,0.237-0.241,0.421
				C405.706,281.331,405.895,281.44,406.076,281.392z"/>
			<path fill-rule="evenodd" clip-rule="evenodd" fill="#AE9E8C" d="M406.688,274.725c-0.163-0.095-0.22-0.304-0.125-0.467
				c0.095-0.164,0.304-0.22,0.469-0.126l2.392,1.379c0.164,0.095,0.221,0.307,0.126,0.471c-0.095,0.163-0.305,0.219-0.469,0.125
				L406.688,274.725L406.688,274.725z M405.898,276.867l2.667,0.715c0.183,0.049,0.372-0.059,0.42-0.242
				c0.05-0.182-0.06-0.37-0.241-0.419l-2.668-0.715c-0.182-0.049-0.37,0.059-0.419,0.242
				C405.607,276.63,405.716,276.818,405.898,276.867L405.898,276.867z M408.008,272.86l1.952,1.954c0.134,0.133,0.35,0.133,0.485,0
				c0.133-0.136,0.133-0.353-0.002-0.485l-1.952-1.954c-0.134-0.133-0.351-0.133-0.483,0
				C407.874,272.511,407.874,272.728,408.008,272.86z"/>
			<path fill-rule="evenodd" clip-rule="evenodd" fill="#BCAE9A" d="M413.734,283.098c2.688,0,4.878-2.193,4.878-4.88
				s-2.19-4.877-4.878-4.877s-4.879,2.191-4.879,4.877S411.047,283.098,413.734,283.098z"/>
			<path fill-rule="evenodd" clip-rule="evenodd" fill="#C6B8A2" d="M412.781,278.652c1.028,0,1.867-0.838,1.867-1.867
				c0-1.028-0.839-1.866-1.867-1.866c-1.028,0-1.867,0.838-1.867,1.866C410.914,277.815,411.753,278.652,412.781,278.652z"/>
		</g>
		<g>
			<path fill-rule="evenodd" clip-rule="evenodd" fill="#AE9E8C" d="M33.224,275.126c3.752,0,6.81-3.06,6.81-6.809
				c0-3.751-3.058-6.81-6.81-6.81c-3.749,0-6.809,3.059-6.809,6.81C26.415,272.066,29.475,275.126,33.224,275.126z"/>
			<path fill-rule="evenodd" clip-rule="evenodd" fill="#AE9E8C" d="M32.882,259.577c0-0.189,0.153-0.343,0.344-0.343
				c0.188,0,0.342,0.153,0.342,0.343v2.763c0,0.189-0.153,0.343-0.342,0.343c-0.19,0-0.344-0.153-0.344-0.343V259.577
				L32.882,259.577z M30.632,259.965c-0.05-0.184,0.061-0.372,0.241-0.421c0.183-0.049,0.372,0.062,0.421,0.242l0.715,2.669
				c0.048,0.181-0.061,0.37-0.243,0.419c-0.183,0.048-0.371-0.059-0.42-0.243L30.632,259.965L30.632,259.965z M35.156,259.786
				c0.048-0.181,0.235-0.291,0.418-0.242c0.183,0.049,0.293,0.237,0.243,0.421l-0.715,2.666c-0.049,0.185-0.236,0.291-0.419,0.243
				c-0.183-0.049-0.293-0.238-0.243-0.419L35.156,259.786z"/>
			<path fill-rule="evenodd" clip-rule="evenodd" fill="#AE9E8C" d="M40.622,263.65c0.163-0.095,0.374-0.039,0.468,0.125
				c0.095,0.166,0.039,0.375-0.125,0.47l-2.393,1.381c-0.163,0.095-0.373,0.039-0.469-0.127c-0.094-0.164-0.038-0.373,0.127-0.468
				L40.622,263.65L40.622,263.65z M39.162,261.896l-1.953,1.951c-0.133,0.135-0.133,0.352,0,0.485c0.134,0.135,0.351,0.135,0.485,0
				l1.952-1.951c0.134-0.136,0.134-0.353,0-0.485C39.514,261.761,39.295,261.761,39.162,261.896L39.162,261.896z M41.577,265.724
				l-2.668,0.715c-0.183,0.049-0.291,0.237-0.242,0.421c0.05,0.182,0.238,0.292,0.42,0.24l2.669-0.712
				c0.181-0.052,0.291-0.238,0.241-0.422C41.948,265.785,41.76,265.675,41.577,265.724z"/>
			<path fill-rule="evenodd" clip-rule="evenodd" fill="#AE9E8C" d="M40.965,272.391c0.164,0.095,0.22,0.304,0.125,0.468
				c-0.094,0.163-0.305,0.22-0.468,0.125l-2.392-1.379c-0.165-0.098-0.221-0.307-0.127-0.47c0.096-0.164,0.306-0.22,0.469-0.126
				L40.965,272.391L40.965,272.391z M41.756,270.248l-2.668-0.715c-0.183-0.049-0.371,0.059-0.42,0.243
				c-0.05,0.181,0.059,0.37,0.243,0.418l2.667,0.716c0.182,0.048,0.37-0.06,0.419-0.243
				C42.047,270.485,41.938,270.297,41.756,270.248L41.756,270.248z M39.646,274.255l-1.952-1.953c-0.135-0.133-0.352-0.133-0.485,0
				c-0.133,0.135-0.133,0.352,0,0.484l1.953,1.954c0.133,0.133,0.352,0.133,0.484,0C39.78,274.604,39.78,274.388,39.646,274.255z"/>
			<path fill-rule="evenodd" clip-rule="evenodd" fill="#AE9E8C" d="M33.567,277.056c0,0.189-0.153,0.345-0.342,0.345
				c-0.19,0-0.344-0.155-0.344-0.345v-2.76c0-0.191,0.153-0.345,0.344-0.345c0.188,0,0.342,0.153,0.342,0.345V277.056
				L33.567,277.056z M35.818,276.671c0.049,0.181-0.06,0.37-0.244,0.418c-0.181,0.049-0.37-0.059-0.418-0.242l-0.716-2.666
				c-0.048-0.184,0.061-0.37,0.243-0.421c0.183-0.049,0.371,0.061,0.42,0.242L35.818,276.671L35.818,276.671z M31.294,276.847
				c-0.049,0.184-0.236,0.291-0.419,0.242c-0.183-0.048-0.291-0.237-0.243-0.418l0.716-2.669c0.048-0.182,0.237-0.291,0.418-0.242
				c0.183,0.051,0.293,0.237,0.243,0.421L31.294,276.847z"/>
			<path fill-rule="evenodd" clip-rule="evenodd" fill="#AE9E8C" d="M25.828,272.983c-0.164,0.095-0.375,0.038-0.469-0.125
				c-0.095-0.164-0.039-0.373,0.125-0.468l2.392-1.382c0.164-0.094,0.375-0.038,0.47,0.126c0.095,0.163,0.038,0.372-0.127,0.47
				L25.828,272.983L25.828,272.983z M27.287,274.74l1.953-1.954c0.133-0.133,0.133-0.35,0-0.484c-0.134-0.133-0.351-0.133-0.485,0
				l-1.952,1.953c-0.134,0.133-0.134,0.35,0,0.485C26.935,274.873,27.154,274.873,27.287,274.74L27.287,274.74z M24.873,270.91
				l2.667-0.716c0.183-0.048,0.291-0.237,0.241-0.418c-0.049-0.182-0.236-0.292-0.419-0.243l-2.668,0.715
				c-0.183,0.049-0.292,0.237-0.242,0.419C24.501,270.851,24.69,270.958,24.873,270.91z"/>
			<path fill-rule="evenodd" clip-rule="evenodd" fill="#AE9E8C" d="M25.484,264.245c-0.164-0.095-0.22-0.304-0.125-0.47
				c0.094-0.164,0.305-0.22,0.469-0.125l2.391,1.381c0.165,0.095,0.222,0.304,0.127,0.468c-0.095,0.166-0.306,0.222-0.47,0.127
				L25.484,264.245L25.484,264.245z M24.694,266.388l2.667,0.715c0.183,0.049,0.371-0.062,0.42-0.243
				c0.05-0.184-0.061-0.37-0.241-0.421l-2.667-0.715c-0.183-0.049-0.372,0.062-0.421,0.242
				C24.402,266.149,24.512,266.336,24.694,266.388L24.694,266.388z M26.803,262.381l1.952,1.953
				c0.135,0.133,0.351,0.133,0.485-0.002c0.133-0.133,0.133-0.351-0.001-0.483l-1.952-1.953c-0.134-0.133-0.352-0.133-0.484,0
				C26.669,262.028,26.669,262.245,26.803,262.381z"/>
			<path fill-rule="evenodd" clip-rule="evenodd" fill="#BCAE9A" d="M32.529,272.615c2.688,0,4.879-2.19,4.879-4.877
				c0-2.69-2.191-4.88-4.879-4.88s-4.878,2.19-4.878,4.88C27.651,270.425,29.842,272.615,32.529,272.615z"/>
			<path fill-rule="evenodd" clip-rule="evenodd" fill="#C6B8A2" d="M31.577,268.172c1.027,0,1.866-0.84,1.866-1.869
				c0-1.026-0.839-1.866-1.866-1.866c-1.029,0-1.868,0.84-1.868,1.866C29.709,267.332,30.548,268.172,31.577,268.172z"/>
		</g>
		<g>
			<path fill-rule="evenodd" clip-rule="evenodd" fill="#AE9E8C" d="M111.599,127.308c3.75,0,6.81-3.058,6.81-6.809
				c0-3.75-3.06-6.808-6.81-6.808s-6.808,3.058-6.808,6.808C104.791,124.251,107.849,127.308,111.599,127.308z"/>
			<path fill-rule="evenodd" clip-rule="evenodd" fill="#AE9E8C" d="M111.256,111.761c0-0.189,0.154-0.343,0.343-0.343
				c0.191,0,0.344,0.154,0.344,0.343v2.762c0,0.189-0.153,0.343-0.344,0.343c-0.188,0-0.343-0.154-0.343-0.343V111.761
				L111.256,111.761z M109.006,112.146c-0.049-0.181,0.06-0.37,0.242-0.419c0.183-0.048,0.372,0.06,0.421,0.243l0.715,2.667
				c0.048,0.183-0.061,0.372-0.243,0.42c-0.183,0.048-0.371-0.062-0.42-0.243L109.006,112.146L109.006,112.146z M113.529,111.97
				c0.049-0.183,0.237-0.291,0.42-0.243c0.183,0.049,0.291,0.238,0.243,0.419l-0.715,2.668c-0.049,0.181-0.238,0.291-0.421,0.243
				c-0.183-0.049-0.291-0.238-0.242-0.42L113.529,111.97z"/>
			<path fill-rule="evenodd" clip-rule="evenodd" fill="#AE9E8C" d="M118.997,115.834c0.163-0.096,0.372-0.039,0.468,0.125
				c0.095,0.164,0.039,0.374-0.126,0.468l-2.392,1.38c-0.163,0.096-0.374,0.04-0.469-0.125c-0.094-0.164-0.038-0.374,0.125-0.469
				L118.997,115.834L118.997,115.834z M117.536,114.077l-1.952,1.953c-0.134,0.133-0.134,0.351,0,0.485
				c0.133,0.133,0.351,0.133,0.485,0l1.952-1.954c0.133-0.133,0.133-0.35,0-0.484C117.887,113.944,117.67,113.944,117.536,114.077
				L117.536,114.077z M119.952,117.907l-2.668,0.714c-0.183,0.05-0.291,0.237-0.242,0.42c0.05,0.183,0.237,0.291,0.42,0.243
				l2.667-0.715c0.183-0.049,0.291-0.238,0.243-0.419C120.323,117.966,120.134,117.857,119.952,117.907z"/>
			<path fill-rule="evenodd" clip-rule="evenodd" fill="#AE9E8C" d="M119.339,124.572c0.165,0.095,0.221,0.305,0.126,0.47
				c-0.096,0.163-0.305,0.22-0.468,0.125l-2.394-1.381c-0.163-0.095-0.219-0.304-0.125-0.469c0.095-0.164,0.306-0.221,0.469-0.125
				L119.339,124.572L119.339,124.572z M120.131,122.431l-2.669-0.715c-0.183-0.048-0.37,0.06-0.42,0.241
				c-0.049,0.184,0.06,0.372,0.242,0.421l2.668,0.714c0.182,0.05,0.371-0.059,0.42-0.241
				C120.42,122.669,120.312,122.479,120.131,122.431L120.131,122.431z M118.021,126.438l-1.952-1.954
				c-0.135-0.134-0.352-0.134-0.485,0c-0.133,0.134-0.133,0.351,0.001,0.485l1.952,1.952c0.133,0.134,0.352,0.134,0.484,0
				C118.155,126.789,118.155,126.57,118.021,126.438z"/>
			<path fill-rule="evenodd" clip-rule="evenodd" fill="#AE9E8C" d="M111.942,129.24c0,0.189-0.153,0.342-0.344,0.342
				c-0.188,0-0.343-0.153-0.343-0.342v-2.763c0-0.189,0.154-0.342,0.343-0.342c0.191,0,0.344,0.153,0.344,0.342V129.24
				L111.942,129.24z M114.192,128.853c0.05,0.183-0.061,0.37-0.243,0.42c-0.183,0.049-0.37-0.061-0.42-0.242l-0.714-2.669
				c-0.048-0.181,0.061-0.37,0.243-0.418c0.183-0.049,0.37,0.06,0.42,0.243L114.192,128.853L114.192,128.853z M109.669,129.031
				c-0.049,0.181-0.238,0.291-0.421,0.242c-0.181-0.05-0.291-0.237-0.242-0.42l0.715-2.667c0.05-0.183,0.237-0.291,0.42-0.243
				c0.183,0.048,0.291,0.237,0.243,0.418L109.669,129.031z"/>
			<path fill-rule="evenodd" clip-rule="evenodd" fill="#AE9E8C" d="M104.202,125.167c-0.164,0.095-0.374,0.038-0.468-0.125
				c-0.095-0.165-0.039-0.376,0.125-0.47l2.392-1.38c0.164-0.096,0.374-0.039,0.468,0.125c0.096,0.164,0.039,0.374-0.125,0.469
				L104.202,125.167L104.202,125.167z M105.662,126.922l1.952-1.953c0.134-0.133,0.134-0.351,0.001-0.484
				c-0.134-0.134-0.351-0.134-0.485,0l-1.953,1.952c-0.133,0.134-0.133,0.351,0,0.484
				C105.311,127.055,105.528,127.055,105.662,126.922L105.662,126.922z M103.246,123.094l2.667-0.715
				c0.183-0.048,0.293-0.237,0.243-0.42c-0.049-0.183-0.237-0.291-0.42-0.241l-2.667,0.713c-0.183,0.05-0.292,0.238-0.242,0.42
				C102.876,123.034,103.063,123.142,103.246,123.094z"/>
			<path fill-rule="evenodd" clip-rule="evenodd" fill="#AE9E8C" d="M103.859,116.427c-0.164-0.094-0.22-0.305-0.125-0.468
				c0.094-0.164,0.304-0.221,0.468-0.125l2.392,1.38c0.164,0.095,0.221,0.305,0.125,0.469c-0.094,0.165-0.304,0.221-0.468,0.125
				L103.859,116.427L103.859,116.427z M103.069,118.569l2.667,0.715c0.183,0.05,0.37-0.059,0.42-0.241
				c0.049-0.183-0.061-0.372-0.243-0.42l-2.667-0.715c-0.183-0.048-0.37,0.06-0.42,0.243
				C102.777,118.331,102.887,118.52,103.069,118.569L103.069,118.569z M105.177,114.562l1.953,1.954
				c0.133,0.134,0.352,0.134,0.484,0c0.134-0.134,0.134-0.351,0-0.485l-1.952-1.952c-0.134-0.134-0.352-0.134-0.485,0
				C105.044,114.212,105.044,114.429,105.177,114.562z"/>
			<path fill-rule="evenodd" clip-rule="evenodd" fill="#BCAE9A" d="M110.903,124.799c2.688,0,4.878-2.192,4.878-4.88
				c0-2.687-2.19-4.878-4.878-4.878c-2.687,0-4.879,2.192-4.879,4.878C106.024,122.607,108.217,124.799,110.903,124.799z"/>
			<path fill-rule="evenodd" clip-rule="evenodd" fill="#C6B8A2" d="M109.951,120.354c1.028,0,1.866-0.837,1.866-1.867
				c0-1.028-0.838-1.867-1.866-1.867c-1.028,0-1.867,0.839-1.867,1.867C108.084,119.516,108.923,120.354,109.951,120.354z"/>
		</g>
		<path fill-rule="evenodd" clip-rule="evenodd" fill="#AE9E8C" d="M199.727,167.102c0.12,0.005,0.237,0.021,0.351,0.044
			l0.162-0.605c0.016-0.06,0.078-0.095,0.137-0.079c0.059,0.017,0.094,0.077,0.078,0.137l-0.162,0.605
			c0.3,0.097,0.572,0.257,0.801,0.463l0.444-0.444c0.043-0.044,0.113-0.044,0.156,0c0.043,0.043,0.043,0.114,0,0.157l-0.444,0.444
			c0.08,0.087,0.152,0.181,0.216,0.281l0.544-0.314c0.053-0.031,0.122-0.013,0.152,0.04c0.03,0.053,0.013,0.122-0.041,0.152
			l-0.544,0.313c0.054,0.105,0.1,0.215,0.136,0.328l0.606-0.162c0.059-0.015,0.12,0.019,0.135,0.078
			c0.017,0.059-0.019,0.12-0.077,0.137l-0.605,0.162c0.032,0.149,0.049,0.304,0.049,0.462s-0.017,0.313-0.049,0.462l0.605,0.162
			c0.059,0.017,0.094,0.077,0.077,0.137c-0.015,0.059-0.076,0.094-0.135,0.078l-0.605-0.162c-0.037,0.114-0.082,0.224-0.136,0.328
			l0.543,0.313c0.054,0.03,0.071,0.1,0.041,0.152c-0.03,0.054-0.1,0.071-0.152,0.041l-0.544-0.314
			c-0.063,0.1-0.136,0.194-0.216,0.281l0.444,0.444c0.043,0.043,0.043,0.113,0,0.157c-0.043,0.043-0.113,0.043-0.156,0l-0.444-0.444
			c-0.229,0.206-0.501,0.367-0.801,0.463l0.162,0.605c0.016,0.06-0.02,0.12-0.078,0.135c-0.059,0.017-0.12-0.018-0.137-0.078
			l-0.162-0.605c-0.113,0.025-0.23,0.04-0.351,0.046v0.627c0,0.062-0.05,0.111-0.111,0.111c-0.062,0-0.111-0.05-0.111-0.111v-0.627
			c-0.12-0.006-0.237-0.021-0.351-0.046l-0.162,0.605c-0.017,0.06-0.078,0.095-0.137,0.078c-0.059-0.015-0.095-0.075-0.078-0.135
			l0.162-0.605c-0.3-0.097-0.572-0.258-0.801-0.463l-0.444,0.444c-0.043,0.043-0.113,0.043-0.156,0
			c-0.044-0.044-0.044-0.114,0-0.157l0.443-0.444c-0.079-0.087-0.151-0.182-0.217-0.281l-0.542,0.314
			c-0.054,0.03-0.122,0.013-0.152-0.041c-0.03-0.052-0.013-0.122,0.041-0.152l0.542-0.313c-0.053-0.104-0.098-0.214-0.135-0.328
			l-0.605,0.162c-0.059,0.017-0.12-0.019-0.137-0.078c-0.015-0.06,0.02-0.12,0.079-0.137l0.605-0.162
			c-0.032-0.149-0.049-0.304-0.049-0.462s0.019-0.314,0.049-0.462l-0.605-0.162c-0.06-0.017-0.094-0.078-0.079-0.137
			c0.017-0.059,0.077-0.093,0.137-0.078l0.605,0.162c0.037-0.113,0.082-0.223,0.135-0.328l-0.542-0.313
			c-0.054-0.031-0.071-0.1-0.041-0.152c0.03-0.053,0.099-0.071,0.152-0.04l0.542,0.314c0.066-0.1,0.138-0.194,0.217-0.281
			l-0.443-0.444c-0.044-0.044-0.044-0.114,0-0.157c0.043-0.044,0.113-0.044,0.156,0l0.443,0.444
			c0.229-0.207,0.502-0.366,0.802-0.463l-0.163-0.605c-0.016-0.06,0.02-0.12,0.079-0.137c0.059-0.016,0.12,0.019,0.137,0.079
			l0.162,0.605c0.113-0.024,0.23-0.04,0.351-0.044v-0.628c0-0.061,0.05-0.111,0.111-0.111c0.061,0,0.111,0.05,0.111,0.111V167.102z"
			/>
		<path fill-rule="evenodd" clip-rule="evenodd" fill="#AE9E8C" d="M71.567,189.803c0.119,0.005,0.237,0.02,0.351,0.044l0.162-0.605
			c0.017-0.06,0.077-0.095,0.137-0.078c0.059,0.016,0.095,0.076,0.078,0.135l-0.162,0.605c0.3,0.097,0.571,0.258,0.8,0.463
			l0.444-0.444c0.044-0.043,0.114-0.043,0.156,0c0.043,0.044,0.043,0.114,0,0.157l-0.443,0.444c0.079,0.086,0.152,0.181,0.216,0.281
			l0.544-0.314c0.053-0.031,0.121-0.013,0.152,0.04c0.03,0.053,0.012,0.122-0.041,0.152l-0.544,0.313
			c0.054,0.105,0.1,0.214,0.137,0.328l0.605-0.162c0.059-0.017,0.119,0.019,0.135,0.078c0.017,0.06-0.019,0.12-0.078,0.136
			l-0.604,0.162c0.031,0.149,0.048,0.304,0.048,0.462s-0.017,0.313-0.048,0.462l0.604,0.162c0.06,0.017,0.095,0.077,0.078,0.136
			c-0.016,0.059-0.075,0.095-0.135,0.078l-0.605-0.162c-0.037,0.114-0.082,0.224-0.136,0.328l0.543,0.313
			c0.053,0.03,0.071,0.099,0.041,0.152c-0.031,0.054-0.1,0.071-0.152,0.04l-0.544-0.314c-0.063,0.1-0.137,0.194-0.216,0.281
			l0.443,0.444c0.043,0.044,0.043,0.114,0,0.157c-0.042,0.044-0.112,0.044-0.156,0l-0.444-0.444c-0.229,0.206-0.5,0.367-0.8,0.463
			l0.162,0.605c0.017,0.06-0.02,0.12-0.078,0.135c-0.06,0.017-0.12-0.018-0.137-0.078l-0.161-0.605
			c-0.114,0.024-0.232,0.04-0.352,0.044v0.628c0,0.061-0.05,0.111-0.111,0.111c-0.062,0-0.111-0.05-0.111-0.111v-0.628
			c-0.12-0.005-0.237-0.02-0.351-0.044l-0.163,0.605c-0.017,0.06-0.077,0.095-0.136,0.078c-0.06-0.016-0.095-0.075-0.078-0.135
			l0.162-0.605c-0.3-0.097-0.572-0.258-0.801-0.463l-0.444,0.444c-0.043,0.044-0.113,0.044-0.157,0
			c-0.043-0.043-0.043-0.114,0-0.157l0.444-0.444c-0.079-0.086-0.151-0.181-0.216-0.281l-0.544,0.314
			c-0.054,0.031-0.121,0.013-0.151-0.04c-0.031-0.053-0.013-0.122,0.041-0.152l0.544-0.313c-0.054-0.104-0.1-0.214-0.137-0.328
			l-0.605,0.162c-0.059,0.017-0.12-0.019-0.137-0.078c-0.016-0.06,0.021-0.12,0.079-0.136l0.605-0.162
			c-0.032-0.149-0.049-0.304-0.049-0.462s0.017-0.314,0.049-0.462l-0.605-0.162c-0.059-0.017-0.095-0.077-0.079-0.136
			c0.016-0.059,0.077-0.095,0.137-0.078l0.605,0.162c0.037-0.114,0.083-0.223,0.137-0.328l-0.544-0.313
			c-0.054-0.031-0.072-0.1-0.041-0.152c0.03-0.053,0.098-0.071,0.151-0.04l0.544,0.314c0.064-0.1,0.136-0.194,0.216-0.281
			l-0.444-0.444c-0.043-0.043-0.043-0.114,0-0.157c0.044-0.043,0.114-0.043,0.157,0l0.443,0.444
			c0.229-0.207,0.502-0.366,0.802-0.463l-0.162-0.605c-0.017-0.06,0.018-0.12,0.078-0.135c0.059-0.017,0.119,0.018,0.136,0.078
			l0.163,0.605c0.113-0.025,0.23-0.04,0.351-0.044v-0.628c0-0.061,0.05-0.111,0.111-0.111c0.062,0,0.111,0.05,0.111,0.111V189.803z"
			/>
		<path fill-rule="evenodd" clip-rule="evenodd" fill="#AE9E8C" d="M272.02,53.873c0.12,0.006,0.236,0.021,0.351,0.046l0.163-0.606
			c0.015-0.059,0.076-0.094,0.136-0.078c0.06,0.015,0.095,0.076,0.078,0.135l-0.162,0.607c0.3,0.096,0.572,0.256,0.801,0.462
			l0.444-0.444c0.043-0.042,0.113-0.042,0.155,0.001c0.044,0.042,0.044,0.114,0,0.157l-0.442,0.443
			c0.079,0.087,0.151,0.183,0.216,0.282l0.544-0.315c0.052-0.029,0.119-0.012,0.15,0.042c0.03,0.052,0.013,0.12-0.04,0.151
			l-0.544,0.314c0.054,0.105,0.1,0.214,0.136,0.327l0.606-0.162c0.059-0.015,0.12,0.02,0.136,0.08
			c0.017,0.059-0.02,0.12-0.078,0.135l-0.606,0.162c0.033,0.149,0.048,0.304,0.048,0.462c0,0.16-0.015,0.314-0.048,0.462
			l0.606,0.164c0.059,0.015,0.095,0.076,0.078,0.135c-0.016,0.059-0.076,0.094-0.136,0.079l-0.605-0.164
			c-0.037,0.114-0.081,0.224-0.135,0.328l0.542,0.314c0.053,0.031,0.07,0.099,0.04,0.151c-0.031,0.054-0.099,0.071-0.15,0.042
			l-0.544-0.314c-0.064,0.1-0.137,0.194-0.216,0.281l0.442,0.444c0.044,0.043,0.044,0.112,0,0.156c-0.042,0.043-0.112,0.043-0.155,0
			l-0.444-0.444c-0.228,0.207-0.501,0.367-0.801,0.464l0.162,0.607c0.017,0.058-0.019,0.12-0.078,0.135
			c-0.059,0.015-0.12-0.019-0.136-0.078l-0.163-0.606c-0.113,0.024-0.23,0.041-0.351,0.046v0.629c0,0.061-0.05,0.111-0.112,0.111
			c-0.061,0-0.111-0.05-0.111-0.111v-0.629c-0.118-0.005-0.236-0.021-0.35-0.046l-0.163,0.606c-0.016,0.059-0.077,0.093-0.136,0.078
			c-0.06-0.016-0.095-0.077-0.078-0.135l0.162-0.606c-0.301-0.097-0.573-0.258-0.801-0.465l-0.444,0.446
			c-0.043,0.042-0.113,0.042-0.156-0.001c-0.044-0.042-0.044-0.113,0-0.156l0.442-0.444c-0.077-0.086-0.15-0.181-0.216-0.281
			l-0.542,0.314c-0.054,0.029-0.121,0.012-0.152-0.042c-0.03-0.052-0.013-0.12,0.041-0.151l0.543-0.314
			c-0.054-0.104-0.099-0.213-0.136-0.328l-0.605,0.164c-0.059,0.015-0.12-0.021-0.137-0.079c-0.017-0.059,0.02-0.12,0.08-0.135
			l0.604-0.164c-0.031-0.148-0.048-0.303-0.048-0.462c0-0.158,0.017-0.313,0.048-0.462l-0.604-0.162
			c-0.061-0.016-0.097-0.077-0.08-0.135c0.016-0.06,0.077-0.095,0.136-0.08l0.606,0.162c0.037-0.112,0.082-0.222,0.136-0.327
			l-0.543-0.314c-0.054-0.031-0.071-0.099-0.041-0.151c0.031-0.054,0.099-0.071,0.152-0.042l0.542,0.315
			c0.066-0.1,0.137-0.194,0.216-0.281l-0.442-0.444c-0.044-0.043-0.044-0.114,0-0.157c0.043-0.043,0.113-0.043,0.156,0l0.443,0.443
			c0.229-0.207,0.501-0.366,0.801-0.462l-0.162-0.607c-0.016-0.059,0.02-0.12,0.079-0.135c0.059-0.017,0.12,0.019,0.136,0.078
			l0.163,0.606c0.113-0.024,0.231-0.04,0.35-0.046v-0.629c0-0.059,0.051-0.111,0.111-0.111c0.063,0,0.112,0.051,0.112,0.111V53.873z
			"/>
		<path fill-rule="evenodd" clip-rule="evenodd" fill="#AE9E8C" d="M408.81,158.831c0.12,0.005,0.236,0.021,0.351,0.046l0.163-0.605
			c0.015-0.059,0.076-0.095,0.135-0.08c0.061,0.016,0.095,0.077,0.079,0.136l-0.163,0.605c0.301,0.098,0.573,0.258,0.802,0.465
			l0.444-0.444c0.042-0.043,0.113-0.043,0.155,0c0.044,0.044,0.044,0.114,0,0.156l-0.442,0.444c0.077,0.088,0.15,0.183,0.216,0.281
			l0.542-0.313c0.054-0.031,0.122-0.013,0.152,0.04c0.03,0.053,0.013,0.123-0.041,0.153l-0.543,0.313
			c0.054,0.104,0.099,0.213,0.136,0.328l0.607-0.164c0.059-0.015,0.12,0.02,0.136,0.079c0.017,0.059-0.02,0.12-0.078,0.136
			l-0.607,0.163c0.032,0.148,0.048,0.304,0.048,0.462c0,0.158-0.016,0.313-0.048,0.462l0.607,0.163
			c0.059,0.017,0.095,0.076,0.078,0.136c-0.016,0.059-0.077,0.093-0.136,0.078l-0.607-0.162c-0.036,0.112-0.082,0.222-0.136,0.327
			l0.543,0.314c0.054,0.031,0.071,0.1,0.041,0.152c-0.03,0.052-0.099,0.07-0.152,0.04l-0.542-0.313
			c-0.065,0.098-0.139,0.194-0.216,0.281l0.442,0.444c0.044,0.043,0.044,0.112,0,0.156c-0.042,0.043-0.112,0.043-0.155,0
			l-0.444-0.443c-0.228,0.206-0.501,0.365-0.801,0.462l0.162,0.607c0.016,0.06-0.018,0.12-0.079,0.135
			c-0.059,0.017-0.12-0.02-0.135-0.078l-0.163-0.605c-0.113,0.023-0.23,0.04-0.351,0.046v0.627c0,0.061-0.05,0.111-0.111,0.111
			c-0.063,0-0.112-0.05-0.112-0.111v-0.627c-0.12-0.006-0.236-0.023-0.35-0.046l-0.162,0.605c-0.016,0.059-0.077,0.095-0.136,0.078
			c-0.06-0.016-0.095-0.076-0.079-0.135l0.163-0.605c-0.301-0.098-0.573-0.258-0.8-0.463l-0.444,0.444
			c-0.044,0.042-0.115,0.042-0.157-0.001c-0.044-0.042-0.044-0.113,0-0.156l0.442-0.444c-0.077-0.087-0.15-0.183-0.216-0.281
			l-0.542,0.313c-0.054,0.03-0.121,0.013-0.152-0.04c-0.03-0.053-0.013-0.122,0.041-0.152l0.543-0.314
			c-0.054-0.105-0.099-0.213-0.136-0.327l-0.607,0.162c-0.059,0.015-0.119-0.019-0.135-0.078c-0.018-0.06,0.019-0.12,0.077-0.136
			l0.607-0.163c-0.031-0.15-0.048-0.304-0.048-0.462c0-0.158,0.017-0.314,0.048-0.462l-0.607-0.163
			c-0.059-0.016-0.095-0.077-0.077-0.136c0.015-0.059,0.076-0.094,0.135-0.079l0.607,0.164c0.037-0.114,0.082-0.224,0.136-0.328
			l-0.543-0.313c-0.054-0.03-0.071-0.1-0.041-0.153c0.031-0.053,0.099-0.07,0.152-0.04l0.542,0.313
			c0.065-0.098,0.137-0.193,0.216-0.281l-0.442-0.444c-0.044-0.042-0.044-0.112,0-0.156c0.042-0.043,0.113-0.043,0.157,0
			l0.442,0.444c0.228-0.207,0.501-0.367,0.801-0.463l-0.162-0.606c-0.016-0.059,0.02-0.12,0.079-0.136
			c0.059-0.015,0.12,0.021,0.136,0.08l0.162,0.605c0.114-0.024,0.23-0.041,0.35-0.046v-0.628c0-0.061,0.05-0.11,0.112-0.11
			c0.062,0,0.111,0.049,0.111,0.11V158.831z"/>
		<path fill-rule="evenodd" clip-rule="evenodd" fill="#AE9E8C" d="M454.406,364.446c0.119,0.005,0.235,0.021,0.35,0.046
			l0.162-0.605c0.016-0.06,0.077-0.094,0.137-0.079c0.059,0.016,0.093,0.077,0.078,0.136l-0.162,0.605
			c0.3,0.097,0.571,0.258,0.8,0.465l0.444-0.444c0.043-0.044,0.114-0.044,0.156,0c0.043,0.043,0.043,0.112,0,0.155l-0.443,0.444
			c0.079,0.087,0.152,0.182,0.216,0.281l0.544-0.314c0.053-0.03,0.12-0.013,0.151,0.041c0.03,0.054,0.013,0.122-0.04,0.153
			l-0.544,0.311c0.054,0.104,0.1,0.215,0.136,0.329l0.606-0.163c0.059-0.016,0.119,0.018,0.135,0.079
			c0.017,0.059-0.018,0.12-0.078,0.135l-0.607,0.164c0.033,0.148,0.05,0.304,0.05,0.462s-0.017,0.312-0.05,0.462l0.607,0.161
			c0.06,0.018,0.095,0.077,0.078,0.138c-0.016,0.059-0.076,0.095-0.135,0.077l-0.605-0.161c-0.037,0.112-0.083,0.223-0.137,0.327
			l0.544,0.313c0.053,0.031,0.07,0.1,0.04,0.151c-0.031,0.054-0.099,0.071-0.151,0.04l-0.544-0.314
			c-0.063,0.1-0.137,0.194-0.216,0.28l0.443,0.445c0.043,0.043,0.043,0.113,0,0.156c-0.042,0.043-0.112,0.043-0.156,0l-0.444-0.442
			c-0.228,0.204-0.5,0.366-0.8,0.462l0.162,0.605c0.015,0.061-0.02,0.121-0.078,0.135c-0.06,0.02-0.12-0.018-0.137-0.076
			l-0.162-0.607c-0.113,0.025-0.231,0.041-0.35,0.045v0.629c0,0.063-0.05,0.113-0.111,0.113s-0.111-0.051-0.111-0.113v-0.629
			c-0.12-0.004-0.237-0.02-0.353-0.045l-0.162,0.607c-0.016,0.059-0.076,0.096-0.135,0.076c-0.061-0.014-0.095-0.074-0.078-0.135
			l0.162-0.605c-0.3-0.096-0.573-0.258-0.802-0.462l-0.444,0.444c-0.042,0.041-0.112,0.041-0.156-0.002
			c-0.043-0.041-0.043-0.113,0-0.156l0.444-0.445c-0.079-0.086-0.151-0.181-0.217-0.28l-0.543,0.314
			c-0.054,0.031-0.121,0.014-0.151-0.04c-0.031-0.052-0.013-0.12,0.041-0.151l0.542-0.313c-0.054-0.104-0.098-0.215-0.135-0.327
			l-0.605,0.161c-0.06,0.017-0.121-0.019-0.137-0.077c-0.016-0.061,0.02-0.12,0.079-0.138l0.605-0.161
			c-0.032-0.15-0.049-0.304-0.049-0.462s0.017-0.314,0.049-0.462l-0.605-0.164c-0.06-0.015-0.095-0.076-0.079-0.135
			c0.016-0.061,0.077-0.095,0.136-0.079l0.607,0.163c0.037-0.114,0.081-0.225,0.135-0.329l-0.542-0.311
			c-0.054-0.031-0.072-0.1-0.041-0.153c0.03-0.054,0.098-0.071,0.151-0.041l0.543,0.314c0.065-0.1,0.137-0.194,0.217-0.281
			l-0.444-0.444c-0.043-0.043-0.043-0.112,0-0.155c0.044-0.044,0.114-0.044,0.156,0l0.444,0.444
			c0.229-0.207,0.502-0.368,0.801-0.465l-0.162-0.605c-0.016-0.059,0.019-0.12,0.079-0.136c0.059-0.015,0.119,0.019,0.135,0.079
			l0.162,0.605c0.115-0.025,0.232-0.041,0.353-0.046v-0.628c0-0.062,0.05-0.112,0.111-0.112s0.111,0.051,0.111,0.112V364.446z"/>
		<path fill-rule="evenodd" clip-rule="evenodd" fill="#AE9E8C" d="M272.88,404.022c0.12,0.005,0.236,0.021,0.352,0.046l0.162-0.607
			c0.015-0.059,0.076-0.095,0.135-0.079c0.061,0.018,0.095,0.079,0.079,0.138l-0.163,0.605c0.302,0.097,0.573,0.255,0.802,0.462
			l0.444-0.444c0.042-0.044,0.113-0.044,0.156,0c0.043,0.043,0.043,0.114,0,0.158l-0.443,0.444c0.078,0.087,0.15,0.182,0.216,0.281
			l0.542-0.314c0.054-0.03,0.122-0.013,0.152,0.041c0.03,0.054,0.013,0.12-0.041,0.15l-0.542,0.315
			c0.053,0.104,0.098,0.214,0.135,0.326l0.606-0.16c0.059-0.016,0.12,0.018,0.136,0.076c0.017,0.059-0.02,0.12-0.078,0.138
			l-0.606,0.161c0.032,0.15,0.049,0.304,0.049,0.462s-0.017,0.314-0.049,0.463l0.606,0.163c0.059,0.016,0.095,0.076,0.078,0.136
			c-0.016,0.059-0.077,0.094-0.136,0.079l-0.605-0.164c-0.036,0.115-0.083,0.225-0.136,0.33l0.542,0.312
			c0.054,0.033,0.071,0.1,0.041,0.152c-0.03,0.054-0.099,0.072-0.152,0.041l-0.542-0.313c-0.065,0.1-0.138,0.193-0.216,0.28
			l0.443,0.444c0.043,0.044,0.043,0.112,0,0.156c-0.043,0.043-0.112,0.043-0.156,0l-0.444-0.444c-0.229,0.207-0.5,0.367-0.801,0.465
			l0.162,0.604c0.016,0.06-0.018,0.12-0.079,0.136c-0.059,0.016-0.12-0.017-0.135-0.079l-0.162-0.605
			c-0.114,0.025-0.231,0.041-0.352,0.046v0.629c0,0.06-0.05,0.112-0.111,0.112c-0.063,0-0.112-0.052-0.112-0.112v-0.629
			c-0.12-0.005-0.236-0.021-0.351-0.046l-0.162,0.605c-0.016,0.062-0.077,0.095-0.136,0.079c-0.06-0.016-0.095-0.076-0.079-0.136
			l0.163-0.604c-0.301-0.098-0.573-0.258-0.8-0.465l-0.444,0.444c-0.044,0.043-0.115,0.043-0.157,0
			c-0.044-0.044-0.044-0.112,0-0.156l0.443-0.444c-0.078-0.087-0.151-0.181-0.216-0.28l-0.543,0.313
			c-0.054,0.031-0.121,0.013-0.152-0.041c-0.03-0.053-0.013-0.119,0.041-0.152l0.543-0.312c-0.054-0.105-0.099-0.215-0.136-0.327
			l-0.606,0.161c-0.059,0.015-0.118-0.021-0.135-0.079c-0.017-0.059,0.018-0.12,0.077-0.136l0.606-0.163
			c-0.031-0.148-0.048-0.305-0.048-0.463s0.017-0.311,0.048-0.462l-0.606-0.161c-0.059-0.018-0.094-0.079-0.077-0.138
			c0.015-0.059,0.076-0.092,0.135-0.076l0.606,0.16c0.037-0.112,0.082-0.222,0.136-0.326l-0.543-0.315
			c-0.054-0.03-0.071-0.097-0.041-0.15c0.031-0.054,0.099-0.071,0.152-0.041l0.543,0.314c0.064-0.1,0.137-0.194,0.216-0.281
			l-0.443-0.444c-0.044-0.044-0.044-0.115,0-0.158c0.042-0.044,0.113-0.044,0.157,0l0.442,0.444
			c0.229-0.207,0.501-0.365,0.801-0.462l-0.162-0.605c-0.016-0.059,0.02-0.12,0.079-0.138c0.059-0.016,0.12,0.021,0.136,0.079
			l0.162,0.607c0.114-0.025,0.23-0.041,0.351-0.046v-0.628c0-0.061,0.05-0.112,0.112-0.112c0.061,0,0.111,0.051,0.111,0.112V404.022
			z"/>
		<path fill-rule="evenodd" clip-rule="evenodd" fill="#AE9E8C" d="M63.824,407.462c0.12,0.005,0.236,0.023,0.352,0.046l0.162-0.605
			c0.016-0.059,0.076-0.094,0.136-0.079c0.06,0.016,0.094,0.077,0.079,0.136l-0.164,0.605c0.302,0.097,0.573,0.258,0.802,0.465
			l0.444-0.444c0.042-0.044,0.114-0.044,0.156,0c0.043,0.043,0.043,0.114,0,0.155l-0.443,0.444c0.079,0.087,0.15,0.182,0.216,0.281
			l0.544-0.314c0.053-0.03,0.12-0.01,0.15,0.041c0.031,0.054,0.013,0.122-0.039,0.153l-0.544,0.314
			c0.054,0.105,0.1,0.212,0.135,0.327l0.606-0.163c0.06-0.016,0.12,0.021,0.136,0.079c0.017,0.059-0.02,0.12-0.078,0.135
			l-0.606,0.164c0.033,0.147,0.049,0.304,0.049,0.462c0,0.158-0.016,0.314-0.049,0.462l0.606,0.164
			c0.059,0.015,0.095,0.076,0.078,0.135c-0.016,0.059-0.076,0.095-0.136,0.077l-0.604-0.161c-0.037,0.112-0.082,0.223-0.137,0.327
			l0.544,0.314c0.052,0.031,0.07,0.1,0.039,0.151c-0.03,0.054-0.098,0.071-0.15,0.04l-0.544-0.314
			c-0.065,0.1-0.137,0.194-0.216,0.283l0.443,0.441c0.043,0.044,0.043,0.115,0,0.159c-0.042,0.043-0.112,0.043-0.156,0l-0.444-0.444
			c-0.229,0.206-0.5,0.364-0.8,0.462l0.162,0.607c0.015,0.059-0.019,0.12-0.079,0.136c-0.06,0.015-0.119-0.021-0.136-0.079
			l-0.162-0.605c-0.113,0.023-0.231,0.038-0.352,0.046v0.626c0,0.061-0.05,0.112-0.112,0.112c-0.06,0-0.11-0.052-0.11-0.112v-0.626
			c-0.119-0.008-0.236-0.022-0.352-0.046l-0.162,0.605c-0.016,0.059-0.076,0.094-0.136,0.079c-0.059-0.016-0.094-0.077-0.077-0.136
			l0.162-0.607c-0.302-0.098-0.573-0.256-0.802-0.462l-0.444,0.444c-0.043,0.043-0.112,0.043-0.156,0
			c-0.043-0.044-0.043-0.115,0-0.159l0.443-0.441c-0.078-0.089-0.15-0.184-0.216-0.283l-0.543,0.314
			c-0.054,0.031-0.121,0.014-0.151-0.04c-0.031-0.052-0.013-0.12,0.04-0.151l0.543-0.314c-0.054-0.104-0.099-0.212-0.135-0.327
			l-0.607,0.161c-0.059,0.018-0.119-0.019-0.135-0.077c-0.017-0.059,0.02-0.12,0.079-0.135l0.606-0.164
			c-0.032-0.147-0.049-0.304-0.049-0.462c0-0.158,0.017-0.314,0.049-0.462l-0.606-0.164c-0.059-0.015-0.096-0.076-0.079-0.135
			c0.016-0.059,0.076-0.095,0.135-0.079l0.607,0.163c0.036-0.112,0.081-0.222,0.135-0.327l-0.543-0.314
			c-0.053-0.031-0.071-0.1-0.04-0.153c0.03-0.051,0.098-0.071,0.151-0.041l0.543,0.314c0.065-0.1,0.137-0.191,0.216-0.281
			l-0.443-0.444c-0.043-0.041-0.043-0.112,0-0.155c0.044-0.044,0.112-0.044,0.156,0l0.444,0.444c0.229-0.207,0.5-0.368,0.8-0.463
			l-0.162-0.607c-0.015-0.059,0.02-0.12,0.079-0.136c0.06-0.015,0.12,0.021,0.136,0.079l0.162,0.605
			c0.115-0.022,0.232-0.041,0.352-0.046v-0.628c0-0.062,0.051-0.11,0.11-0.11c0.063,0,0.112,0.049,0.112,0.11V407.462z"/>
		<path fill-rule="evenodd" clip-rule="evenodd" fill="#AE9E8C" d="M179.967,22.041c0.12,0.005,0.236,0.021,0.351,0.046l0.162-0.607
			c0.016-0.059,0.077-0.093,0.137-0.078c0.059,0.015,0.094,0.077,0.078,0.135l-0.163,0.606c0.301,0.097,0.573,0.258,0.802,0.463
			l0.444-0.444c0.042-0.042,0.113-0.042,0.155,0.001c0.044,0.042,0.044,0.113,0,0.156l-0.442,0.444
			c0.079,0.087,0.15,0.182,0.215,0.281l0.544-0.314c0.053-0.03,0.12-0.011,0.151,0.041c0.03,0.054,0.013,0.122-0.04,0.152
			l-0.544,0.315c0.054,0.103,0.1,0.213,0.136,0.327l0.606-0.162c0.059-0.016,0.12,0.019,0.135,0.078
			c0.017,0.06-0.019,0.12-0.077,0.137l-0.606,0.162c0.033,0.149,0.048,0.304,0.048,0.462c0,0.16-0.015,0.313-0.048,0.462
			l0.606,0.162c0.059,0.017,0.094,0.078,0.077,0.137c-0.015,0.06-0.076,0.095-0.135,0.078l-0.605-0.162
			c-0.037,0.113-0.083,0.223-0.137,0.328l0.544,0.313c0.053,0.032,0.07,0.1,0.04,0.152c-0.031,0.054-0.099,0.072-0.151,0.041
			l-0.544-0.314c-0.064,0.1-0.136,0.194-0.215,0.282l0.442,0.443c0.044,0.044,0.044,0.114,0,0.157c-0.042,0.044-0.112,0.044-0.155,0
			l-0.444-0.443c-0.229,0.206-0.501,0.365-0.801,0.462l0.162,0.605c0.016,0.06-0.02,0.122-0.078,0.137
			c-0.06,0.016-0.12-0.019-0.137-0.079l-0.162-0.605c-0.113,0.024-0.23,0.04-0.351,0.046v0.627c0,0.061-0.05,0.112-0.111,0.112
			c-0.063,0-0.112-0.051-0.112-0.112v-0.627c-0.119-0.006-0.236-0.022-0.352-0.046l-0.162,0.605
			c-0.015,0.06-0.076,0.095-0.135,0.079c-0.061-0.015-0.095-0.077-0.078-0.137l0.162-0.605c-0.301-0.097-0.573-0.257-0.802-0.462
			l-0.444,0.443c-0.042,0.044-0.112,0.044-0.155,0c-0.044-0.043-0.044-0.114,0-0.157l0.442-0.443
			c-0.079-0.088-0.15-0.183-0.216-0.282l-0.542,0.314c-0.054,0.031-0.122,0.013-0.152-0.041c-0.03-0.052-0.013-0.12,0.041-0.152
			l0.543-0.313c-0.054-0.105-0.1-0.215-0.136-0.327l-0.606,0.161c-0.059,0.017-0.12-0.018-0.136-0.078
			c-0.017-0.059,0.02-0.12,0.079-0.137l0.605-0.162c-0.032-0.149-0.049-0.302-0.049-0.462c0-0.158,0.017-0.313,0.049-0.462
			l-0.605-0.162c-0.059-0.017-0.096-0.077-0.079-0.137c0.016-0.059,0.077-0.093,0.136-0.078l0.606,0.162
			c0.036-0.112,0.082-0.224,0.136-0.327l-0.543-0.315c-0.054-0.03-0.071-0.098-0.041-0.152c0.03-0.052,0.099-0.071,0.152-0.041
			l0.542,0.314c0.065-0.1,0.137-0.193,0.216-0.281l-0.442-0.444c-0.044-0.043-0.044-0.112,0-0.156c0.043-0.043,0.112-0.043,0.155,0
			l0.444,0.443c0.229-0.207,0.501-0.367,0.801-0.462l-0.162-0.606c-0.016-0.059,0.019-0.12,0.079-0.135
			c0.059-0.015,0.12,0.019,0.135,0.078l0.162,0.607c0.115-0.026,0.232-0.041,0.352-0.046v-0.628c0-0.061,0.05-0.111,0.112-0.111
			c0.062,0,0.111,0.05,0.111,0.111V22.041z"/>
		<path fill-rule="evenodd" clip-rule="evenodd" fill="#AE9E8C" d="M369.853,41.065c0.12,0.005,0.237,0.02,0.352,0.045l0.163-0.605
			c0.016-0.06,0.077-0.095,0.136-0.08c0.059,0.017,0.094,0.077,0.078,0.137l-0.163,0.605c0.301,0.097,0.572,0.258,0.801,0.463
			l0.444-0.444c0.044-0.043,0.114-0.043,0.157,0c0.043,0.043,0.043,0.114,0,0.157l-0.444,0.444c0.079,0.086,0.152,0.181,0.217,0.281
			l0.543-0.314c0.054-0.031,0.121-0.013,0.152,0.04c0.03,0.052,0.013,0.122-0.041,0.152l-0.543,0.313
			c0.054,0.104,0.099,0.214,0.136,0.328l0.604-0.162c0.061-0.017,0.12,0.019,0.137,0.078c0.016,0.06-0.019,0.12-0.079,0.137
			l-0.605,0.162c0.032,0.149,0.049,0.304,0.049,0.462c0,0.158-0.017,0.313-0.049,0.462l0.605,0.162
			c0.061,0.017,0.095,0.078,0.079,0.136c-0.015,0.059-0.076,0.095-0.135,0.078l-0.607-0.162c-0.037,0.112-0.082,0.223-0.136,0.328
			l0.543,0.313c0.054,0.031,0.071,0.1,0.041,0.152c-0.031,0.053-0.099,0.071-0.152,0.04l-0.543-0.314
			c-0.064,0.1-0.138,0.194-0.217,0.281l0.444,0.444c0.043,0.043,0.043,0.114,0,0.157c-0.043,0.042-0.113,0.042-0.157,0l-0.442-0.444
			c-0.23,0.206-0.502,0.366-0.803,0.463l0.164,0.605c0.015,0.06-0.021,0.12-0.079,0.135c-0.059,0.017-0.12-0.018-0.136-0.078
			l-0.162-0.605c-0.115,0.024-0.232,0.04-0.353,0.044v0.628c0,0.061-0.05,0.111-0.11,0.111c-0.062,0-0.111-0.05-0.111-0.111v-0.628
			c-0.12-0.005-0.237-0.021-0.352-0.044l-0.162,0.605c-0.015,0.06-0.078,0.095-0.137,0.078c-0.059-0.016-0.093-0.076-0.077-0.135
			l0.162-0.605c-0.301-0.097-0.572-0.258-0.801-0.463l-0.444,0.444c-0.042,0.042-0.114,0.042-0.157,0
			c-0.043-0.043-0.043-0.114,0-0.157l0.444-0.444c-0.079-0.087-0.152-0.181-0.216-0.281l-0.544,0.314
			c-0.052,0.031-0.121,0.013-0.151-0.04c-0.031-0.053-0.012-0.122,0.04-0.152l0.544-0.313c-0.054-0.105-0.1-0.215-0.135-0.328
			l-0.606,0.162c-0.059,0.017-0.12-0.019-0.137-0.078c-0.016-0.059,0.021-0.12,0.079-0.136l0.607-0.162
			c-0.033-0.149-0.05-0.304-0.05-0.462c0-0.158,0.017-0.314,0.05-0.462l-0.607-0.162c-0.059-0.017-0.095-0.077-0.079-0.137
			c0.017-0.059,0.078-0.094,0.137-0.078l0.606,0.162c0.035-0.114,0.081-0.224,0.135-0.328l-0.544-0.313
			c-0.052-0.03-0.071-0.1-0.04-0.152c0.03-0.054,0.1-0.071,0.151-0.04l0.544,0.314c0.064-0.1,0.137-0.194,0.216-0.281l-0.444-0.444
			c-0.043-0.043-0.043-0.114,0-0.157c0.043-0.043,0.113-0.043,0.157,0l0.444,0.444c0.228-0.207,0.5-0.367,0.801-0.463l-0.162-0.605
			c-0.016-0.06,0.019-0.12,0.077-0.137c0.059-0.015,0.12,0.02,0.137,0.08l0.162,0.605c0.114-0.025,0.231-0.04,0.352-0.045v-0.628
			c0-0.061,0.05-0.111,0.111-0.111c0.06,0,0.11,0.05,0.11,0.111V41.065z"/>
		<path fill-rule="evenodd" clip-rule="evenodd" fill="#AE9E8C" d="M479.976,45.365c0.12,0.006,0.236,0.022,0.352,0.046l0.162-0.605
			c0.015-0.059,0.076-0.094,0.137-0.079c0.059,0.015,0.093,0.077,0.077,0.135l-0.163,0.606c0.302,0.097,0.573,0.257,0.802,0.463
			l0.444-0.444c0.044-0.043,0.114-0.043,0.156,0c0.043,0.043,0.043,0.114,0,0.157l-0.443,0.443c0.079,0.088,0.152,0.183,0.216,0.282
			l0.544-0.314c0.052-0.031,0.12-0.013,0.15,0.041c0.031,0.052,0.013,0.121-0.039,0.152l-0.544,0.314
			c0.054,0.104,0.1,0.212,0.135,0.327l0.607-0.162c0.059-0.017,0.12,0.02,0.136,0.078c0.017,0.059-0.02,0.12-0.078,0.135
			l-0.606,0.164c0.033,0.149,0.05,0.304,0.05,0.462c0,0.159-0.017,0.313-0.05,0.462l0.606,0.164
			c0.059,0.015,0.095,0.076,0.078,0.135c-0.016,0.059-0.077,0.094-0.136,0.078l-0.604-0.162c-0.037,0.112-0.082,0.224-0.137,0.327
			l0.544,0.314c0.052,0.031,0.07,0.1,0.039,0.152c-0.03,0.052-0.099,0.07-0.15,0.041l-0.544-0.314
			c-0.063,0.1-0.137,0.194-0.216,0.281l0.443,0.444c0.043,0.043,0.043,0.113,0,0.157c-0.042,0.043-0.112,0.043-0.156,0l-0.444-0.444
			c-0.229,0.207-0.5,0.365-0.801,0.463l0.162,0.607c0.016,0.059-0.018,0.119-0.077,0.135c-0.061,0.015-0.12-0.021-0.137-0.079
			l-0.162-0.605c-0.114,0.024-0.231,0.04-0.352,0.046v0.627c0,0.062-0.05,0.111-0.11,0.111c-0.061,0-0.111-0.05-0.111-0.111v-0.627
			c-0.12-0.006-0.237-0.021-0.352-0.046l-0.163,0.605c-0.016,0.059-0.077,0.094-0.136,0.079c-0.06-0.017-0.094-0.077-0.078-0.135
			l0.163-0.607c-0.301-0.097-0.573-0.256-0.802-0.463l-0.445,0.444c-0.042,0.043-0.112,0.043-0.155,0
			c-0.043-0.043-0.043-0.113,0-0.157l0.444-0.444c-0.079-0.087-0.152-0.182-0.216-0.281l-0.544,0.314
			c-0.054,0.029-0.121,0.011-0.152-0.041c-0.03-0.052-0.013-0.121,0.041-0.152l0.543-0.314c-0.054-0.104-0.099-0.213-0.136-0.327
			l-0.605,0.162c-0.06,0.017-0.12-0.019-0.137-0.078c-0.016-0.059,0.018-0.12,0.079-0.135l0.605-0.164
			c-0.032-0.149-0.049-0.304-0.049-0.462c0-0.158,0.017-0.314,0.049-0.462l-0.605-0.164c-0.061-0.015-0.095-0.077-0.079-0.135
			c0.016-0.059,0.076-0.095,0.135-0.078l0.606,0.162c0.037-0.112,0.082-0.223,0.136-0.327l-0.543-0.314
			c-0.054-0.031-0.071-0.1-0.041-0.152c0.031-0.054,0.099-0.072,0.152-0.041l0.544,0.314c0.064-0.1,0.136-0.194,0.216-0.281
			l-0.444-0.444c-0.043-0.043-0.043-0.114,0-0.157c0.043-0.043,0.112-0.043,0.155,0l0.445,0.444c0.228-0.206,0.501-0.366,0.8-0.463
			l-0.162-0.606c-0.015-0.059,0.02-0.12,0.079-0.135c0.059-0.015,0.12,0.021,0.136,0.079l0.163,0.605
			c0.114-0.024,0.232-0.039,0.352-0.046v-0.628c0-0.06,0.05-0.11,0.111-0.11c0.061,0,0.11,0.05,0.11,0.11V45.365z"/>
		<g>
			<path fill-rule="evenodd" clip-rule="evenodd" fill="#AE9E8C" d="M226.145,42.735c3.749,0,6.808-3.059,6.808-6.809
				s-3.059-6.809-6.808-6.809c-3.752,0-6.81,3.059-6.81,6.809S222.394,42.735,226.145,42.735z"/>
			<path fill-rule="evenodd" clip-rule="evenodd" fill="#AE9E8C" d="M225.802,27.187c0-0.189,0.153-0.343,0.342-0.343
				c0.19,0,0.344,0.154,0.344,0.343v2.762c0,0.191-0.153,0.344-0.344,0.344c-0.189,0-0.342-0.153-0.342-0.344V27.187L225.802,27.187
				z M223.551,27.572c-0.049-0.181,0.06-0.37,0.244-0.419c0.181-0.048,0.37,0.06,0.418,0.243l0.716,2.667
				c0.048,0.183-0.061,0.372-0.243,0.42c-0.183,0.048-0.371-0.06-0.42-0.243L223.551,27.572L223.551,27.572z M228.075,27.396
				c0.049-0.183,0.238-0.291,0.419-0.243c0.183,0.049,0.291,0.238,0.243,0.419l-0.716,2.668c-0.048,0.183-0.235,0.291-0.418,0.243
				c-0.183-0.049-0.293-0.238-0.243-0.42L228.075,27.396z"/>
			<path fill-rule="evenodd" clip-rule="evenodd" fill="#AE9E8C" d="M233.541,31.26c0.164-0.095,0.375-0.039,0.469,0.125
				c0.095,0.163,0.038,0.374-0.125,0.468l-2.392,1.382c-0.164,0.094-0.375,0.038-0.47-0.127c-0.095-0.164-0.038-0.373,0.127-0.467
				L233.541,31.26L233.541,31.26z M232.082,29.504l-1.953,1.952c-0.133,0.134-0.133,0.351,0,0.485c0.134,0.133,0.351,0.133,0.485,0
				l1.952-1.954c0.134-0.133,0.134-0.35,0-0.484C232.434,29.37,232.216,29.37,232.082,29.504L232.082,29.504z M234.496,33.333
				l-2.667,0.715c-0.183,0.049-0.291,0.238-0.241,0.419c0.049,0.183,0.237,0.292,0.419,0.243l2.668-0.714
				c0.183-0.05,0.292-0.237,0.242-0.42C234.868,33.393,234.679,33.285,234.496,33.333z"/>
			<path fill-rule="evenodd" clip-rule="evenodd" fill="#AE9E8C" d="M233.885,39.999c0.163,0.095,0.22,0.304,0.125,0.469
				c-0.094,0.163-0.305,0.22-0.469,0.125l-2.391-1.381c-0.165-0.095-0.222-0.304-0.127-0.467c0.095-0.165,0.306-0.221,0.47-0.126
				L233.885,39.999L233.885,39.999z M234.675,37.856l-2.667-0.713c-0.183-0.05-0.371,0.059-0.42,0.241
				c-0.05,0.183,0.061,0.372,0.241,0.42l2.667,0.715c0.185,0.048,0.372-0.06,0.421-0.243
				C234.967,38.094,234.857,37.906,234.675,37.856L234.675,37.856z M232.566,41.863l-1.952-1.952c-0.135-0.134-0.352-0.134-0.485,0
				c-0.133,0.133-0.133,0.351,0.001,0.484l1.952,1.953c0.134,0.133,0.352,0.133,0.484,0C232.7,42.214,232.7,41.997,232.566,41.863z"
				/>
			<path fill-rule="evenodd" clip-rule="evenodd" fill="#AE9E8C" d="M226.487,44.666c0,0.189-0.153,0.342-0.344,0.342
				c-0.189,0-0.342-0.153-0.342-0.342v-2.762c0-0.19,0.153-0.343,0.342-0.343c0.19,0,0.344,0.153,0.344,0.343V44.666L226.487,44.666
				z M228.738,44.279c0.049,0.183-0.061,0.372-0.242,0.42c-0.183,0.049-0.372-0.06-0.421-0.242l-0.715-2.667
				c-0.048-0.183,0.061-0.372,0.243-0.42c0.183-0.049,0.371,0.06,0.42,0.243L228.738,44.279L228.738,44.279z M224.213,44.457
				c-0.048,0.182-0.235,0.291-0.418,0.242c-0.183-0.048-0.292-0.237-0.243-0.42l0.715-2.667c0.049-0.183,0.236-0.292,0.419-0.243
				c0.183,0.048,0.293,0.237,0.243,0.42L224.213,44.457z"/>
			<path fill-rule="evenodd" clip-rule="evenodd" fill="#AE9E8C" d="M218.747,40.593c-0.163,0.095-0.374,0.038-0.468-0.125
				c-0.095-0.165-0.039-0.374,0.125-0.469l2.393-1.381c0.163-0.095,0.373-0.039,0.469,0.126c0.094,0.163,0.038,0.373-0.127,0.467
				L218.747,40.593L218.747,40.593z M220.207,42.348l1.953-1.952c0.133-0.134,0.133-0.351,0-0.485c-0.134-0.133-0.351-0.133-0.485,0
				l-1.952,1.952c-0.134,0.134-0.134,0.351,0,0.485C219.855,42.482,220.074,42.482,220.207,42.348L220.207,42.348z M217.792,38.52
				l2.668-0.715c0.183-0.048,0.291-0.237,0.242-0.418c-0.05-0.183-0.238-0.292-0.42-0.243l-2.669,0.713
				c-0.183,0.05-0.291,0.238-0.241,0.421C217.421,38.459,217.609,38.568,217.792,38.52z"/>
			<path fill-rule="evenodd" clip-rule="evenodd" fill="#AE9E8C" d="M218.404,31.853c-0.164-0.094-0.22-0.305-0.125-0.468
				c0.094-0.164,0.305-0.22,0.468-0.125l2.392,1.381c0.165,0.094,0.221,0.304,0.127,0.467c-0.096,0.165-0.306,0.221-0.469,0.127
				L218.404,31.853L218.404,31.853z M217.613,33.996l2.668,0.715c0.183,0.049,0.371-0.059,0.42-0.242
				c0.05-0.183-0.059-0.372-0.241-0.42l-2.669-0.715c-0.182-0.048-0.37,0.06-0.42,0.243
				C217.322,33.758,217.431,33.946,217.613,33.996L217.613,33.996z M219.723,29.989l1.952,1.953
				c0.135,0.133,0.352,0.133,0.484-0.001c0.134-0.133,0.134-0.351,0-0.485l-1.952-1.952c-0.133-0.133-0.352-0.133-0.484,0
				C219.589,29.638,219.589,29.855,219.723,29.989z"/>
			<path fill-rule="evenodd" clip-rule="evenodd" fill="#BCAE9A" d="M225.449,40.225c2.688,0,4.879-2.191,4.879-4.878
				c0-2.688-2.191-4.88-4.879-4.88s-4.879,2.192-4.879,4.88C220.57,38.034,222.762,40.225,225.449,40.225z"/>
			<path fill-rule="evenodd" clip-rule="evenodd" fill="#C6B8A2" d="M224.497,35.779c1.027,0,1.866-0.837,1.866-1.867
				c0-1.028-0.839-1.867-1.866-1.867c-1.029,0-1.867,0.839-1.867,1.867C222.63,34.942,223.468,35.779,224.497,35.779z"/>
		</g>
		<path fill-rule="evenodd" clip-rule="evenodd" fill="#AE9E8C" d="M46.975,65.363c0.12,0.005,0.238,0.021,0.352,0.044l0.162-0.605
			c0.016-0.059,0.076-0.095,0.137-0.078c0.059,0.016,0.093,0.076,0.078,0.136l-0.162,0.605c0.3,0.097,0.571,0.257,0.8,0.463
			l0.444-0.444c0.042-0.044,0.114-0.044,0.157,0c0.042,0.043,0.042,0.114,0,0.157l-0.444,0.444c0.079,0.087,0.152,0.181,0.216,0.281
			l0.544-0.314c0.053-0.031,0.12-0.013,0.152,0.041c0.03,0.052,0.011,0.121-0.041,0.152l-0.544,0.313
			c0.054,0.105,0.1,0.215,0.135,0.328l0.606-0.162c0.06-0.015,0.12,0.02,0.136,0.078c0.017,0.059-0.02,0.12-0.078,0.137
			l-0.604,0.162c0.031,0.149,0.048,0.304,0.048,0.462c0,0.159-0.017,0.313-0.048,0.462l0.604,0.162
			c0.059,0.017,0.095,0.077,0.078,0.137c-0.016,0.059-0.076,0.094-0.136,0.078l-0.604-0.162c-0.037,0.114-0.082,0.224-0.136,0.328
			l0.543,0.313c0.052,0.031,0.071,0.1,0.041,0.152c-0.032,0.054-0.1,0.071-0.152,0.041l-0.544-0.314
			c-0.064,0.1-0.137,0.194-0.216,0.281l0.444,0.444c0.042,0.043,0.042,0.113,0,0.157c-0.043,0.043-0.113,0.043-0.157,0l-0.444-0.444
			c-0.229,0.205-0.5,0.367-0.8,0.463l0.162,0.605c0.015,0.06-0.019,0.12-0.078,0.135c-0.061,0.017-0.12-0.018-0.137-0.078
			l-0.162-0.605c-0.113,0.024-0.231,0.04-0.352,0.046v0.627c0,0.062-0.05,0.111-0.11,0.111c-0.062,0-0.111-0.05-0.111-0.111v-0.627
			c-0.12-0.006-0.237-0.021-0.351-0.046l-0.162,0.605c-0.017,0.06-0.077,0.094-0.137,0.078c-0.059-0.015-0.094-0.075-0.077-0.135
			l0.162-0.605c-0.301-0.097-0.573-0.258-0.801-0.463l-0.444,0.444c-0.044,0.043-0.113,0.043-0.157,0
			c-0.043-0.043-0.043-0.113,0-0.157l0.444-0.444c-0.079-0.087-0.151-0.182-0.217-0.281l-0.543,0.314
			c-0.054,0.03-0.121,0.013-0.151-0.041c-0.031-0.052-0.013-0.121,0.04-0.152l0.543-0.313c-0.054-0.104-0.099-0.214-0.136-0.328
			l-0.604,0.162c-0.059,0.017-0.12-0.019-0.137-0.078c-0.017-0.06,0.019-0.12,0.079-0.137l0.605-0.162
			c-0.032-0.149-0.049-0.304-0.049-0.462c0-0.158,0.017-0.314,0.049-0.462l-0.605-0.162c-0.061-0.017-0.096-0.078-0.079-0.137
			c0.016-0.059,0.076-0.093,0.135-0.078l0.606,0.162c0.037-0.113,0.082-0.223,0.136-0.328l-0.543-0.313
			c-0.053-0.031-0.071-0.1-0.04-0.152c0.03-0.054,0.098-0.072,0.151-0.041l0.543,0.314c0.065-0.1,0.137-0.194,0.217-0.281
			l-0.444-0.444c-0.043-0.043-0.043-0.114,0-0.157c0.044-0.044,0.113-0.044,0.157,0l0.443,0.444
			c0.229-0.206,0.501-0.366,0.802-0.463l-0.164-0.605c-0.015-0.06,0.021-0.12,0.079-0.136c0.06-0.017,0.12,0.02,0.137,0.078
			l0.162,0.605c0.114-0.024,0.231-0.04,0.351-0.044v-0.628c0-0.061,0.05-0.111,0.111-0.111c0.061,0,0.11,0.05,0.11,0.111V65.363z"/>
	</g>
	<g>
		<path fill-rule="evenodd" clip-rule="evenodd" fill="#F39626" d="M271.286,244.736l-4.877-4.368c0,0-37.492,25.161-52.661,35.099
			c-15.171,9.939-20.875,9.553-27.766,8.567c-6.891-0.983-32.165-5.123-32.165-5.123l-2.711,8.849c0,0,27.05,14.806,41.772,19.042
			c14.723,4.236,66.77-16.951,66.77-16.951L271.286,244.736z"/>
		<path fill-rule="evenodd" clip-rule="evenodd" fill="#F08419" d="M271.286,244.736l-4.877-4.368c0,0-5.019,3.368-12.125,8.124
			c-2.963,11.092-7.578,27.744-9.38,30.833c-2.746,4.709-14.384,7.323-24.062,11.115c-9.678,3.792-29.686,12.554-29.686,12.554
			s4.276,1.752,10.079,4.198c20.201-1.788,58.413-17.342,58.413-17.342L271.286,244.736z"/>
		<g>
			<path fill-rule="evenodd" clip-rule="evenodd" fill="#4F3A38" d="M287.599,232.869l90.863,6.296
				c7.131,0.494,12.561,6.732,12.066,13.863l-12.352,178.249c-0.494,7.13-6.733,12.561-13.863,12.065l-90.861-6.294
				c-7.131-0.496-12.563-6.732-12.068-13.863l12.352-178.249C274.229,237.805,280.467,232.374,287.599,232.869z"/>
			<path fill-rule="evenodd" clip-rule="evenodd" fill="#3F2B28" d="M378.461,239.165l0.001,0.001
				c7.13,0.493,12.561,6.731,12.066,13.861l-12.352,178.249c-0.494,7.13-6.732,12.561-13.863,12.065h-0.001
				c-7.131-0.492-12.56-6.731-12.065-13.863c1.472-21.258-0.298-50.246,12.211-176.25l0.138-1.996
				C365.09,244.101,371.33,238.67,378.461,239.165z"/>
		</g>
		<path fill-rule="evenodd" clip-rule="evenodd" fill="#361F1C" d="M260.217,467.24l-4.403,5.792c0,0,0.572,10.054,1.79,26.968
			h98.065c-0.28-23.799-0.779-39.623-1.599-41.457C350.215,449.93,269.286,445.771,260.217,467.24z"/>
		<path fill-rule="evenodd" clip-rule="evenodd" fill="#2A0D09" d="M253,457.666l2.813,15.366c0,0,0.572,10.051,1.79,26.968h3.35
			c5.787-5.451,14.958-10.495,29.843-9.744c10.75,0.544,20.261,3.896,28.208,9.744h36.664c-0.28-23.799-0.779-39.623-1.599-41.457
			C350.215,449.93,262.069,436.196,253,457.666z"/>
		<path fill-rule="evenodd" clip-rule="evenodd" fill="#FFFFFF" d="M258.054,442.137l-6.762,9.607c0,0,1.395,11.24,2.243,12.917
			c0.847,1.68,13.086,8.657,44.343,9.541c31.254,0.885,52.721-5.125,59.688-11.131c0,0,3.482-4.061,1.317-12.191
			C356.719,442.756,258.054,442.137,258.054,442.137z"/>
		<path fill-rule="evenodd" clip-rule="evenodd" fill="#FFFFFF" d="M352.372,250.635l-3.601-3.089l-36.167-13.601
			c-3.628,0.565-21.305,4.651-31.853,7.46c-11.23,25.932-32.609,98.208-18.877,123.212c3.114,5.668-4.681,92.2,7.304,95.885
			c9.498,2.924,29.699,7.267,46.235-0.112c4.323-1.928,1.843-92.713,5.407-96.482C350.768,332.256,382.054,288.156,352.372,250.635z
			"/>
		<path fill-rule="evenodd" clip-rule="evenodd" fill="#EAE2C4" d="M264.119,449.665c1.06,6.049,2.662,10.102,5.059,10.837
			c9.498,2.924,29.699,7.267,46.235-0.112c4.323-1.928,1.843-92.713,5.407-96.482c12.853-13.582,25.947-29.463,34.368-46.127
			l-32.831-6.524h-55.26l5.018,23.536c0.702-3.044,6.557-15.689,11.006-17.211c0,0,1.932-0.938,6.674-0.938
			c4.742,0,10.83,0,12.353,0C303.671,316.644,309.68,443.288,264.119,449.665z"/>
		<path fill-rule="evenodd" clip-rule="evenodd" fill="#EAE2C4" d="M336.96,243.105l-24.355-9.159
			c-3.319,0.517-18.411,3.984-29.031,6.719c1.538,4.86,5.276,12.197,14.184,15.565c13.932,5.268,32.831-1.676,38.076-11.199
			C336.212,244.339,336.589,243.701,336.96,243.105z"/>
		<path fill-rule="evenodd" clip-rule="evenodd" fill="#ED740C" d="M291.972,238.351c8.108,0.347,13.405,0.608,16.847,0.824
			c0.638-1.177,1.258-2.223,1.856-3.111c0.255-0.376,11.002,1.735,16.936,3.387c1.827,0.509,3.265,0.998,5.142,1.421
			c6.37,1.433,15.739,4.756,24.115,9.227c0.395,0.273,19.763,13.379,7.172,59.411c-3.805,12.313-9.599,24.687-11.55,35.29
			c-5.363,29.178,10.543,74.355,8.742,103.182c-0.507,8.122-12.746,12.474-22.641,15.487c-21.539,6.562-94.322,8.54-89.208-22.699
			c7.561-46.2,9.72-64.805,6.924-101.098c-2.924-37.966-13.153-90.73,22.569-100.18
			C281.748,238.733,288.624,238.766,291.972,238.351z"/>
		<path fill-rule="evenodd" clip-rule="evenodd" fill="#DE6502" d="M348.685,246.198c2.743,1.167,5.514,2.475,8.182,3.901
			c0.395,0.273,19.764,13.379,7.173,59.411c-3.805,12.316-9.599,24.684-11.55,35.29c-5.363,29.178,10.543,74.355,8.742,103.182
			c-0.494,7.914-12.125,12.248-21.876,15.254c2.205-21.505,1.846-49.617-3.67-85.879c-10.541-69.281,13.086-130.522,13.086-130.522
			L348.685,246.198z"/>
		<path fill-rule="evenodd" clip-rule="evenodd" fill="#FFFFFF" d="M291.972,238.504c8.108,0.369,13.405,0.648,16.847,0.877
			c0.638-1.254,1.258-2.369,1.856-3.315c0.255-0.401,11.002,1.849,16.936,3.61c1.827,0.542,3.265,1.063,5.142,1.514
			c0.257,0.061,0.518,0.126,0.784,0.194c-4.215,13.565-29.961,17.802-37.489,12.253c-7.527-5.552-8.149-11.05-8.814-14.774
			C288.717,238.507,290.359,238.716,291.972,238.504z"/>
		<path fill-rule="evenodd" clip-rule="evenodd" fill="#E27E67" d="M325.9,199.796l-0.421,9.876c0,0,0,21.03,0,23.306
			c0,2.279,1.136,5.29,3.579,7.155c-8.632,12.063-33.855,12.518-37.316-1.599c1.621-0.446,3.897-1.503,5.089-2.803
			c3.376-3.686,2.486-21.353-0.893-25.651C292.559,205.781,325.9,199.796,325.9,199.796z"/>
		<path fill-rule="evenodd" clip-rule="evenodd" fill="#3F2B28" d="M259.14,357.46c0.162-1.396-3.636-77.81,25.107-119.397
			c-1.425-2.156-16.118-0.509-17.257,1.345c-12.619,20.494-20.15,60.776-16.413,97.727
			C251.438,345.66,252.083,345.856,259.14,357.46z"/>
		<polygon fill-rule="evenodd" clip-rule="evenodd" fill="#361F1C" points="262.344,149.222 276.096,148.032 275.534,179.873 
			269.032,181.537 		"/>
		<path fill-rule="evenodd" clip-rule="evenodd" fill="#E27E67" d="M271.896,177.794c6.204-0.254,11.438,4.572,11.69,10.775
			c0.254,6.204-4.569,11.438-10.773,11.691c-6.204,0.253-11.439-4.571-11.691-10.774
			C260.869,183.281,265.693,178.046,271.896,177.794z"/>
		<path fill-rule="evenodd" clip-rule="evenodd" fill="#E27E67" d="M348.85,174.652c6.204-0.253,11.439,4.571,11.692,10.775
			c0.253,6.204-4.572,11.438-10.774,11.691c-6.205,0.253-11.44-4.571-11.691-10.773C337.822,180.141,342.646,174.905,348.85,174.652
			z"/>
		<path fill-rule="evenodd" clip-rule="evenodd" fill="#F5AC83" d="M305.486,119.521h0.001
			c21.161-0.863,39.181,15.744,40.047,36.907l1.426,34.966c0.864,21.164-15.743,39.184-36.905,40.047h-0.001
			c-21.163,0.864-39.184-15.744-40.047-36.907l-1.429-34.966C267.716,138.405,284.324,120.384,305.486,119.521z"/>
		<path fill-rule="evenodd" clip-rule="evenodd" fill="#EE9073" d="M321.339,122.256c13.632,5.493,23.56,18.598,24.195,34.169
			l1.429,34.97c0.862,21.163-15.744,39.183-36.908,40.046h-0.003c-4.86,0.198-9.555-0.529-13.915-2.016
			c37.649-1.248,40.776-27.005,39.903-48.418c-0.874-21.41-8.056-23.573-16.005-23.249c-7.946,0.325-29.184,1.193-29.184,1.193
			s-6.479-27.834,23.818-35.288C317.028,123.084,319.243,122.615,321.339,122.256z"/>
		<g>
			<path fill-rule="evenodd" clip-rule="evenodd" fill="#E27E67" d="M280.053,196.169c3.073-0.127,5.667,2.265,5.793,5.34
				c0.126,3.073-2.265,5.667-5.34,5.792c-3.074,0.128-5.669-2.264-5.794-5.337C274.587,198.889,276.977,196.293,280.053,196.169z"/>
			<path fill-rule="evenodd" clip-rule="evenodd" fill="#E27E67" d="M322.015,192.684c3.075-0.125,5.67,2.265,5.794,5.339
				c0.126,3.075-2.267,5.669-5.34,5.796c-3.074,0.123-5.668-2.267-5.795-5.341C316.55,195.403,318.939,192.809,322.015,192.684z"/>
		</g>
		<path fill-rule="evenodd" clip-rule="evenodd" fill="#462D29" d="M340.017,165.906c0.19,4.649,2.673,6.341,5.065,7.939
			c0,0-1.244,4.551,1.388,5.498c0,0-0.221-5.434,6.791-3.985c0,0,18.387-32.758-5.38-42.003c0.217,0.775-12.15-0.744-14.883,11.415
			C340.32,144.472,339.621,156.181,340.017,165.906z"/>
		<path fill-rule="evenodd" clip-rule="evenodd" fill="#361F1C" d="M340.017,165.906c0.19,4.649,2.673,6.341,5.065,7.939
			c0,0-1.244,4.551,1.388,5.498c0,0-0.221-5.434,6.791-3.985c0,0,5.637-10.049,6.632-20.585c-2.395,4.538-6.406,8.697-11.778,7.979
			c-3.564-0.478-6.291-2.15-8.322-4.089C339.889,161.06,339.921,163.542,340.017,165.906z"/>
		<path fill-rule="evenodd" clip-rule="evenodd" fill="#2A0D09" d="M339.811,159.167l-3.261-0.716c0,0,0.208-8.89-9.953-7.927
			c0,0-12.173-6.943-21.07,1.143c0,0,5.233-20.974,5.666-21.579c0.433-0.607,16.318,12.174,16.318,12.174s7.38,4.411,7.66,4.858
			C335.452,147.567,338.478,151.172,339.811,159.167z"/>
		<path fill-rule="evenodd" clip-rule="evenodd" fill="#462D29" d="M348.209,173.314c-1.638,11.846-15.901,8.899-13.296-7.725
			c0.846-5.401,2.537-24.768-8.315-15.066c-12.465-25.283-19.503,1.458-24.978,8.837c-29.935,40.361-73.021-5.505-36.819-40.558
			c9.795-9.482,24.439-15.959,39.728-16.899c25.329-1.556,45.342,12.45,43.39,38.754L348.209,173.314z"/>
		<path fill-rule="evenodd" clip-rule="evenodd" fill="#361F1C" d="M348.209,173.314c-1.638,11.846-15.901,8.899-13.296-7.725
			c0.472-3.011,1.206-10.361-0.118-14.598h0.001c0,0,3.473,10.44,13.318,11.759L348.209,173.314L348.209,173.314z M317.47,139.99
			l-0.036-0.007l0.036,0.003V139.99L317.47,139.99z M315.645,139.97c-6.102,1.176-10.405,14.512-14.025,19.391
			c-19.685,26.541-45.054,15.795-49.826-4.644c0.378,1.415,3.564,11.06,20.086,11.671
			C288.924,167.02,302.484,141.031,315.645,139.97z"/>
		<path fill-rule="evenodd" clip-rule="evenodd" fill="#5F3C33" d="M261.13,122.718c2.233,3.457,6.308,6.169,13.451,6.721
			c18.089,1.398,44.238-8.124,59.5-20.407c1.598,1.104,3.081,2.333,4.44,3.679c-13.755,11.276-38.309,28.668-64.998,34.636
			c-9.383,2.098-16.688,0.771-22.381-2.509C251.797,137.72,254.857,130.067,261.13,122.718z"/>
		<g>
			<path fill-rule="evenodd" clip-rule="evenodd" fill="#F5AC83" d="M351.17,420.387l-4.102,5.343
				c-41.114,20.576,3.838,38.54,10.724,6.31C360.209,424.925,351.17,420.387,351.17,420.387z"/>
			<path fill-rule="evenodd" clip-rule="evenodd" fill="#F5AC83" d="M351.625,424.035l-2.706-0.258c0,0-8.642-1.187-10.169,1.771
				c-1.528,2.957,0.117,8.822,0.117,8.822L351.625,424.035z"/>
		</g>
		<path fill-rule="evenodd" clip-rule="evenodd" fill="#1F0000" d="M278.874,176.349L278.874,176.349
			c2.15-0.098,3.991,1.582,4.091,3.733l0.233,5.103c0.099,2.15-1.583,3.992-3.733,4.09l0,0c-2.152,0.098-3.992-1.581-4.091-3.732
			l-0.233-5.102C275.042,178.289,276.721,176.45,278.874,176.349z"/>
		<path fill-rule="evenodd" clip-rule="evenodd" fill="#1F0000" d="M321.547,174.638L321.547,174.638
			c2.152-0.098,3.992,1.582,4.091,3.732l0.233,5.102c0.099,2.153-1.58,3.995-3.732,4.091l0,0c-2.154,0.099-3.994-1.581-4.093-3.732
			l-0.233-5.102C317.717,176.577,319.395,174.738,321.547,174.638z"/>
		<path fill-rule="evenodd" clip-rule="evenodd" fill="#1F0000" d="M316.376,166.489l10.808,2.372
			c1.145,0.253,1.873,1.392,1.624,2.535l0,0c-0.25,1.145-1.392,1.876-2.535,1.623l-10.81-2.372
			c-1.143-0.253-1.873-1.392-1.621-2.535l0,0C314.093,166.966,315.232,166.238,316.376,166.489z"/>
		<path fill-rule="evenodd" clip-rule="evenodd" fill="#F39626" d="M363.477,255.88c10.125,10.301,36.096,65.979,34.675,95.464
			c-1.307,27.117-34.273,78.112-39.756,86.063c-0.477,0.692-1.937,0.621-1.937,0.621s6.042-9.861-3.624-14.861
			c0,0-4.96,0.978-4.338-0.442c0.621-1.422,22.249-47.832,26.333-63.641c3.571-13.82-16.968-36.177-24.25-55.92
			C344.251,286.006,349.481,259.682,363.477,255.88z"/>
		<path fill-rule="evenodd" clip-rule="evenodd" fill="#ED740C" d="M363.477,255.88c1.45,1.476,3.225,3.881,5.196,7.007
			c-4.913,11.06-10.71,25.778-9.603,31.478c1.87,9.627,19.915,51.147,16.028,63.382h-0.001
			c2.016-13.895-17.468-35.462-24.519-54.582C344.251,286.006,349.481,259.682,363.477,255.88L363.477,255.88z M394.212,369.43
			c-9.18,27.276-31.402,61.576-35.816,67.978c-0.477,0.692-1.937,0.621-1.937,0.621s4.042-7.361-4.291-13.361
			c0,0-4.293-0.522-3.671-1.942c0.067-0.156,0.387-0.851,0.907-1.986c5.282,0.153,12.403,0.066,14.769-1.354
			C368.068,417.048,393.866,370.06,394.212,369.43z"/>
		<path fill-rule="evenodd" clip-rule="evenodd" fill="#3F2B28" d="M339.622,363.27c1.645,0.081,8.54-2.398,8.591-3.665
			c0.047-1.269-12.315-65.93,15.264-103.725c0.283-9.487-20.631-14.482-21.496-13.474c-25.276,29.431-16.14,87.276-7.451,111.517
			C335.201,355.798,337.673,363.17,339.622,363.27z"/>
		<path fill-rule="evenodd" clip-rule="evenodd" fill="#F39626" d="M252.301,429.423c0,0,3.886-1.485,4.138-5.745
			c0.253-4.261,0.003-17.388,10.502-27.097c0,0,2.932-1.993,11.914-2.092c8.984-0.099,44.013,0.695,49.564,3.467
			c5.551,2.774,8.277,7.233,8.882,12.287c0.606,5.054,11.008,26.826,21.154,27.031c0,0,0.451,7.54-2.174,10.711
			c-2.623,3.169-55.726,19.412-102.51-2.281C253.771,445.704,249.736,442.04,252.301,429.423z"/>
		<path fill-rule="evenodd" clip-rule="evenodd" fill="#E0CABB" d="M335.702,196.115c-0.173,0.527-0.745,0.813-1.271,0.636
			c-0.527-0.175-0.814-0.749-0.637-1.274c0.018-0.052,6.061-17.873,13.998-19.298c-0.886,0.793-1.181,1.849-1.279,2.519
			C340.544,181.82,335.721,196.069,335.702,196.115L335.702,196.115z M350.698,197.041c-2.87,5.347-7.626,9.98-14.395,11.219
			c-0.545,0.097-1.067-0.266-1.164-0.812c-0.099-0.544,0.264-1.066,0.81-1.163c5.648-1.033,9.758-4.755,12.411-9.197
			c0.462,0.038,0.933,0.05,1.407,0.031C350.082,197.106,350.392,197.08,350.698,197.041z"/>
		<path fill-rule="evenodd" clip-rule="evenodd" fill="#FFFFFF" d="M269.923,192.472c0,0,16.308-3.65,23.475-4.398
			c5.154-0.538,22.513,1.966,37.647,4.52c2.427,0.41,4.307,0.224,4.94,3.367c0.51,2.529,3.497,16.537,2.974,20.209
			c-0.179,1.26-0.586,2.421-1.124,3.451c-4.051,7.765-24.506,13.525-32.289,13.311c-12.234-0.337-36.793-12.367-36.502-38.698
			C269.049,193.699,269.268,192.898,269.923,192.472z"/>
		<path fill-rule="evenodd" clip-rule="evenodd" fill="#FCE9DD" d="M325.655,191.7c1.813,0.294,3.616,0.594,5.39,0.893
			c2.427,0.41,4.307,0.224,4.94,3.367c0.51,2.529,3.497,16.537,2.974,20.209c-0.179,1.26-0.586,2.421-1.124,3.451
			c-4.051,7.765-24.506,13.525-32.289,13.311c-8.258-0.229-22.13-5.787-30.185-17.47c16.45,15.532,41.825,7.218,46.944,2.85
			c5.125-4.368,9.468-21.479,8.401-23.553C330.253,193.881,328.05,192.733,325.655,191.7z"/>
		<path fill-rule="evenodd" clip-rule="evenodd" fill="#F9C7AB" d="M188.194,268.096c0,0-2.77-1.703-4.125-1.583
			c-1.357,0.117-7.092,0.6-8.87,0.035c-1.78-0.566,9.018,7.827,9.018,7.827S189.24,273.872,188.194,268.096z"/>
		<path fill-rule="evenodd" clip-rule="evenodd" fill="#F9C7AB" d="M144.665,269.756l0.439-2.153c0,0,1.609-2.951,2.762-3.12
			c1.151-0.166,10.464-1.004,11.846-0.02c1.383,0.985-4.835,6.382-4.918,6.779c-0.083,0.398-6.635,1.969-6.947,1.821
			C147.532,272.917,144.665,269.756,144.665,269.756z"/>
		<path fill-rule="evenodd" clip-rule="evenodd" fill="#510F00" d="M131.584,287c0,0,44.864-16.238,73.156,1.34
			c0,0-2.624-38.717-4.638-43.259c-2.014-4.54-18.12-16.538-21.971-16.538c-3.85,0-47.877-18.58-53.735-16.069
			C118.537,214.985,131.584,287,131.584,287z"/>
		<path fill-rule="evenodd" clip-rule="evenodd" fill="#EE9073" d="M259.061,330.742c-3.307,1.438-13.753-2.375-22.809-5.781
			c-3.353-6.808-0.709-12.434-0.709-12.434l3.268-1.828l12.963,14.167C251.773,324.866,252.301,331.528,259.061,330.742z"/>
		<path fill-rule="evenodd" clip-rule="evenodd" fill="#6A291F" d="M183.442,150.323c-60.591-30.366-83.897,72.216-71.792,110.484
			c1.587,5.023,6.618,10.95,22.454,11.522c2.677-0.968,2.876-3.925,2.11-6.22c-2.207-6.619-12.9-30.681-9.249-44.438l39.615-2.665
			l9.035,24.135l21.936,14.201l9.37,13.296C239.104,229.337,223.726,137.481,183.442,150.323z"/>
		<path fill-rule="evenodd" clip-rule="evenodd" fill="#FBD6BF" d="M251.964,327.221c-1.653,0.549,0.785,7.012-3.087,6.381
			c-3.873-0.63-19.201-9.688-31.251-16.003c-12.049-6.313-30.103-43.714-30.103-43.714l2.378-1.026c0,0,5.12,1.463,16.981,7.268
			c0,0,13.732,15.771,23.016,25.972C239.184,316.297,239.588,321.825,251.964,327.221z"/>
		<path fill-rule="evenodd" clip-rule="evenodd" fill="#5D1D10" d="M114.858,194.554c-4.479,14.88-8.979,41.677-5.354,67.889
			c3.185,23.051,7.432,51.356,35.991,52.389c2.675-0.966,9.213-0.49,8.448-2.783c-2.208-6.622-30.629-76.619-26.978-90.377
			l39.615-2.665l9.035,24.135l21.936,14.201l0.194,18.552c2.32,1.003,5.189,2.308,8.648,3.993
			c10.085-22.091,18.632-56.445,17.693-74.646c-22.582-1.933-30.842-24.129-30.842-24.129
			c-13.681,12.921-44.408,21.987-64.999,18.974C122.339,199.222,118.02,197.116,114.858,194.554L114.858,194.554z M197.925,293.151
			l0.517,0.865c-0.167,0.225-0.334,0.447-0.5,0.661L197.925,293.151z"/>
		<path fill-rule="evenodd" clip-rule="evenodd" fill="#361F1C" d="M159.68,448.891c0,0,0.041,0.598,0.117,1.734
			c0.378,5.564,1.609,24.09,3.021,49.375h56.692c-0.83-58.836-5.931-106.841-13.98-116.381
			c-11.661-13.828-54.858-6.485-54.858-6.485S154.611,405.93,159.68,448.891z"/>
		<path fill-rule="evenodd" clip-rule="evenodd" fill="#2A0D09" d="M159.679,448.891c0,0,0.042,0.598,0.118,1.734
			c0.378,5.564,1.609,24.09,3.021,49.375h25.742c0.114-1.279,0.23-2.546,0.347-3.794c3.162-33.81,16.57-54.422,27.094-65.673
			c-1.434-14.399-3.264-26.304-5.445-34.733c-4.347-5.503-9.102-11.563-13.879-17.727c-16.876-5.89-46.004-0.939-46.004-0.939
			S154.611,405.93,159.679,448.891z"/>
		<path fill-rule="evenodd" clip-rule="evenodd" fill="#2A0D09" d="M172.296,475.216c0,0-0.083,0.592-0.239,1.721
			c-1.036,7.523-2.099,15.219-3.175,23.064h-57.744c5.008-48.185,12.361-85.266,19.93-93.071
			c12.59-12.987,55.175-2.677,55.175-2.677S180.321,432.706,172.296,475.216z"/>
		<path fill-rule="evenodd" clip-rule="evenodd" fill="#361F1C" d="M172.296,475.216c0,0-0.083,0.592-0.239,1.721
			c-1.036,7.521-2.099,15.219-3.175,23.064h-36.968c0.874-6.703,1.649-11.232,2.266-12.739c2.648-6.466,26.763-49.368,42.926-53.975
			C176.729,435.258,172.68,473.178,172.296,475.216z"/>
		<path fill-rule="evenodd" clip-rule="evenodd" fill="#DB5640" d="M118.654,296.151c8.546-11.46,9.412-15.462,11.064-17.507
			c0.326-0.403,1.587-1.039,3.404-1.81c1.297-0.549,2.359-2.855,3.953-3.447c3.372-1.254,7.43-0.761,9.246-1.297l37.287-0.963
			c12.877,0.539,22.004,19.055,31.74,38.938c7.646,15.618,0.573,36.169-1.277,52.185c-1.239,10.713-0.99,19.791-0.75,28.471v0.023
			l0.017,0.569c0.377,10.96,5.599,46.4,5.535,49.288c-0.065,2.942-1.643,4.184-1.643,4.184c-5.566,2.609-19.673,8.109-42.529,9.466
			c-22.857,1.353-52.732-13.256-54.805-14.755c-2.072-1.499-1.786-3.207-1.786-3.207c4.913-26.634,11.072-23.25,13.475-51.26
			C135.098,344.136,117.896,332.216,118.654,296.151z"/>
		<path fill-rule="evenodd" clip-rule="evenodd" fill="#C94329" d="M218.054,337.785l-0.057,0.429
			c-0.058,0.429-0.118,0.857-0.179,1.287l-0.063,0.426c-0.063,0.43-0.126,0.858-0.193,1.285l-0.066,0.426l-0.052,0.332l-0.017,0.098
			l-0.068,0.426l-0.005,0.036l-0.064,0.391l-0.07,0.424l-0.054,0.322l-0.018,0.105l-0.071,0.426l-0.004,0.019l-0.143,0.83
			l-0.053,0.312l-0.021,0.112l-0.074,0.424l-0.052,0.304l-0.023,0.117l-0.075,0.424l-0.054,0.299l-0.021,0.123l-0.075,0.421
			c-1.166-0.971-3.118-1.767-6.383-1.767c-8.369,0-52.569,2.222-54.924,2.745c-2.355,0.523-11.247,10.239-11.247,17.395
			c0,5.961,4.924,60.311,8.383,85.785c-16.404-3.974-30.99-11.21-32.415-12.242c-2.072-1.499-1.786-3.207-1.786-3.207
			c4.913-26.634,11.072-23.25,13.475-51.26c2.367-27.561-4.673-41.961-9.285-59.461c2.28-3.038,3.953-5.347,4.626-6.43
			c3.663-5.884,9.926-18.851,10.324-22.765c0.399-3.915,9.424,23.285,15.047,27.077c5.623,3.792,59.633,0.131,62.249-0.393
			c1.428-0.286,2.855-1.233,3.857-2.566C219.157,326.057,218.817,331.927,218.054,337.785z"/>
		<path fill-rule="evenodd" clip-rule="evenodd" fill="#FFFDF2" d="M218.211,434.208c0.416,3.376,0.678,5.735,0.663,6.394
			c-0.065,2.942-1.643,4.184-1.643,4.184c-5.566,2.609-19.673,8.109-42.529,9.466c-22.857,1.353-52.732-13.256-54.805-14.755
			c-2.072-1.499-1.786-3.207-1.786-3.207c0.534-2.894,1.083-5.432,1.64-7.693c7.902,3.735,30.222,13.396,52.506,14.869
			C190.431,444.665,208.158,438.557,218.211,434.208z"/>
		<path fill-rule="evenodd" clip-rule="evenodd" fill="#FCE4D6" d="M150.828,439.869c0.512,4.364,1.011,8.389,1.483,11.869
			c-16.404-3.974-30.99-11.21-32.415-12.242c-2.072-1.499-1.786-3.207-1.786-3.207c0.534-2.894,1.083-5.432,1.64-7.693
			C125.06,431.105,136.881,436.292,150.828,439.869z"/>
		<path fill-rule="evenodd" clip-rule="evenodd" fill="#E27E67" d="M151.363,233.915l0.416,9.724c0,9.766,4.604,25.158-5.457,28.45
			c-0.617,0.199,8.551,5.007,21.452,11.166c1.06,0.506,14.17,8.833,15.211,8.688c2.396-0.342,4.184-15.04,4.739-19.724
			c0.009-0.066,0.09-0.189,0.024-0.212c-10.211-4.053-13.469-19.591-6.888-27.967C184.188,239.807,151.363,233.915,151.363,233.915z
			"/>
		<path fill-rule="evenodd" clip-rule="evenodd" fill="#E27E67" d="M136.538,214.672c-5.43-0.084-9.901,4.25-9.984,9.681
			c-0.085,5.43,4.249,9.901,9.68,9.986c5.429,0.085,9.901-4.25,9.984-9.681C146.303,219.227,141.969,214.756,136.538,214.672z"/>
		<path fill-rule="evenodd" clip-rule="evenodd" fill="#F5AC83" d="M173.238,165.503L173.238,165.503
			c-18.525-0.286-33.915,14.634-34.202,33.158l-0.476,30.608c-0.287,18.526,14.634,33.916,33.159,34.204l0,0
			c18.523,0.286,33.914-14.634,34.202-33.158l0.474-30.61C206.684,181.182,191.763,165.79,173.238,165.503z"/>
		<path fill-rule="evenodd" clip-rule="evenodd" fill="#EE9073" d="M139.987,191.237c-0.583,2.385-0.911,4.871-0.951,7.426
			l-0.476,30.607c-0.286,18.526,14.635,33.916,33.159,34.204c-35.89-7.658-19.964-50.181-8.819-53.98
			c11.142-3.801,22.121-13.3,27.987-12.105c5.867,1.194,15.316,11.31,15.349,12.622l0.161-10.304
			c0.059-3.801-0.523-7.468-1.645-10.9c-3.075-0.499-8.068-13.145-14.569-13.136c-7.731,0.01-17.432,12.726-26.256,12.589
			C154.608,188.116,146.633,189.451,139.987,191.237L139.987,191.237z M171.72,263.474"/>
		<path fill-rule="evenodd" clip-rule="evenodd" fill="#510F00" d="M134.465,214.858l7.276-2.91c0,0,3.747,8.826-3.094,11.758
			l0.065-4.193C138.744,217.408,137.754,214.91,134.465,214.858z"/>
		<path fill-rule="evenodd" clip-rule="evenodd" fill="#6A291F" d="M193.246,181.113c0,0-6.663,21.638-56.708,33.561l1.107-36.431
			l25.788-17.586l24.831,3.729c0,0,13.245,8.99,14.47,10.892c1.226,1.901,8.597,25.648,8.597,25.648l-5.015,3.933
			C206.316,204.859,194.656,194.991,193.246,181.113z"/>
		<path fill-rule="evenodd" clip-rule="evenodd" fill="#5D1D10" d="M193.246,181.113c0,0-6.663,21.638-56.708,33.561l0.426-14.01
			C156.733,200.61,181.392,192.311,193.246,181.113L193.246,181.113z M210.86,201.294c-12.676-6.913-17.614-20.181-17.614-20.181
			c1.41,13.878,13.07,23.746,13.07,23.746L210.86,201.294z"/>
		<path fill-rule="evenodd" clip-rule="evenodd" fill="#510F00" d="M201.002,215.047l-9.244-2.172
			c-0.979-0.23-1.965,0.382-2.195,1.36v0.001c-0.229,0.977,0.384,1.965,1.36,2.193l9.243,2.172c0.979,0.23,1.967-0.382,2.195-1.358
			v-0.001C202.591,216.266,201.979,215.276,201.002,215.047z"/>
		<path fill-rule="evenodd" clip-rule="evenodd" fill="#510F00" d="M163.696,212.958l-9.326,1.775
			c-0.987,0.188-1.641,1.148-1.453,2.135l0.001,0.001c0.186,0.985,1.147,1.639,2.134,1.452l9.328-1.776
			c0.986-0.188,1.641-1.147,1.453-2.133v-0.001C165.645,213.425,164.684,212.77,163.696,212.958z"/>
		<path fill-rule="evenodd" clip-rule="evenodd" fill="#FFFFFF" d="M151.191,238.931c0.148,0.355-0.02,0.761-0.375,0.909
			c-0.354,0.147-0.762-0.02-0.91-0.375c-0.02-0.049-6.16-15-11.221-18.78v-1.582C144.503,222.623,151.172,238.88,151.191,238.931
			L151.191,238.931z M136.364,234.336c-0.408-0.003-0.914-0.027-1.468-0.107c1.889,6.977,5.636,14.453,10.973,17.872
			c0.734,0.47,1.414,0.891,2.041,1.271c0.675,0.406,1.318,0.781,1.931,1.126c0.335,0.187,0.759,0.066,0.947-0.268
			c0.188-0.334,0.068-0.758-0.268-0.944c-0.588-0.332-1.219-0.7-1.89-1.105c-0.654-0.394-1.325-0.813-2.014-1.249
			C141.712,247.792,138.21,240.898,136.364,234.336z"/>
		<g>
			<path fill-rule="evenodd" clip-rule="evenodd" fill="#E27E67" d="M198.101,235.574c-2.742-0.008-4.972,2.211-4.98,4.955
				c-0.008,2.741,2.212,4.972,4.954,4.979c2.742,0.006,4.973-2.21,4.979-4.954C203.063,237.811,200.843,235.581,198.101,235.574z"/>
			<path fill-rule="evenodd" clip-rule="evenodd" fill="#E27E67" d="M155.375,235.463c-2.743-0.008-4.973,2.211-4.98,4.954
				c-0.008,2.743,2.21,4.973,4.953,4.979c2.743,0.008,4.974-2.211,4.981-4.954C160.336,237.7,158.118,235.471,155.375,235.463z"/>
		</g>
		<path fill-rule="evenodd" clip-rule="evenodd" fill="#BC6351" d="M182.46,249.95c-0.019,0.828,0.638,1.512,1.463,1.527
			c0.828,0.019,1.511-0.638,1.528-1.464c0.041-1.985-0.73-3.806-2.008-5.139c-1.284-1.337-3.07-2.183-5.058-2.224
			c-1.986-0.041-3.806,0.732-5.138,2.008c-1.339,1.285-2.186,3.072-2.227,5.057c-0.017,0.826,0.64,1.51,1.466,1.528
			c0.826,0.018,1.511-0.639,1.527-1.466c0.023-1.167,0.517-2.213,1.292-2.961c0.783-0.747,1.85-1.198,3.017-1.173
			c1.167,0.024,2.214,0.519,2.961,1.292C182.032,247.718,182.484,248.785,182.46,249.95z"/>
		<path fill-rule="evenodd" clip-rule="evenodd" fill="#FFFFFF" d="M151.363,233.915c0,0-2.935-0.028-3.638,1.729
			c-0.702,1.757-2.677,9.296-1.602,15.36c1.075,6.062,15.125,12.913,25.924,14.142c10.801,1.228,23.445-6.06,27.657-11.328
			c4.215-5.268,7.161-14.844,5.513-16.597c-1.647-1.753-20.262-5.617-23.775-5.793C177.93,231.252,167.746,233.711,151.363,233.915z
			"/>
		<path fill-rule="evenodd" clip-rule="evenodd" fill="#FCE4D6" d="M149.749,234.138c-0.805,0.217-1.68,0.649-2.023,1.507
			c-0.702,1.757-2.677,9.296-1.602,15.36c1.075,6.062,15.125,12.913,25.924,14.142c8.236,0.936,17.547-3.08,23.37-7.377
			c-5.382-5.602-15.779-9.792-15.779-9.792l-0.824,0.899c0,0-2.184,8.189-8.134,9.171
			C164.729,259.028,148.436,252.599,149.749,234.138z"/>
		<path fill-rule="evenodd" clip-rule="evenodd" fill="#510F00" d="M155.354,225.292c-0.521-0.019-0.931-0.457-0.912-0.978
			c0.02-0.523,0.457-0.931,0.979-0.913l10.563,0.38c0.521,0.02,0.93,0.458,0.912,0.98c-0.013,0.374-0.243,0.689-0.564,0.833
			l-9.322,4.119c-0.48,0.21-1.039-0.007-1.25-0.486c-0.209-0.479,0.008-1.039,0.487-1.25l5.553-2.451L155.354,225.292z"/>
		<path fill-rule="evenodd" clip-rule="evenodd" fill="#510F00" d="M200.811,225.257c0.521,0.006,0.94,0.435,0.933,0.958
			c-0.006,0.521-0.434,0.938-0.956,0.933l-6.458-0.082l5.433,2.722c0.467,0.233,0.656,0.802,0.423,1.268
			c-0.232,0.466-0.802,0.656-1.268,0.423l-9.084-4.552c-0.328-0.152-0.555-0.486-0.551-0.87c0.008-0.522,0.436-0.941,0.958-0.934
			L200.811,225.257z"/>
		<path fill-rule="evenodd" clip-rule="evenodd" fill="#804139" d="M118.219,184.776c-0.591,1.514-1.151,3.052-1.688,4.604
			c46.412,10.252,76.183-16.807,89.795-33.831c-6.239-5.762-13.945-8.074-22.883-5.226
			C173.319,180.61,132.906,184.41,118.219,184.776z"/>
		<path fill-rule="evenodd" clip-rule="evenodd" fill="#FFF9F5" d="M184.026,293.276c-5.053-12.571-25.154-18.523-33.465-23.228
			c-0.514-0.291,2.262-4.399,1.8-5.525c-0.481-1.167-11.646-2.766-16.938,2.576c-1.724,1.739-2.3,7.104-2.3,9.734
			c0,0,7.83-5.482,16.753-0.005c6.351,3.899,21.947,8.855,31.899,18.383c0.555,0.528,0.825,1.142,0.995,1.412
			C183.273,297.418,184.026,294.949,184.026,293.276z"/>
		<path fill-rule="evenodd" clip-rule="evenodd" fill="#FFFFFF" d="M183.722,288.654c-0.365-0.186-0.511-0.631-0.324-0.996
			c0.185-0.365,0.631-0.508,0.994-0.324c0.036,0.018,12.801,6.264,9.936,19.774c-1.355,6.387-1.777,11.66-1.091,15.813
			c0.667,4.037,2.393,7.007,5.342,8.914c0.344,0.22,0.444,0.68,0.224,1.021c-0.221,0.342-0.679,0.444-1.022,0.222
			c-3.326-2.147-5.265-5.454-6.002-9.918c-0.718-4.346-0.29-9.798,1.101-16.357C195.505,294.423,183.755,288.67,183.722,288.654z"/>
		<path fill-rule="evenodd" clip-rule="evenodd" fill="#FFFFFF" d="M179.107,290.095c0.258-0.316,0.723-0.365,1.039-0.107
			c0.318,0.258,0.365,0.723,0.107,1.039c-0.02,0.025-6.86,8.305-4.081,19.959c1.114,4.673,3.068,8.069,4.856,11.177
			c2.834,4.929,5.271,9.165,3.636,16.491c-0.088,0.396-0.482,0.648-0.881,0.559c-0.398-0.087-0.648-0.482-0.561-0.878
			c1.512-6.77-0.793-10.776-3.473-15.437c-1.844-3.205-3.86-6.708-5.02-11.57C171.782,298.963,179.087,290.12,179.107,290.095z"/>
		<path fill-rule="evenodd" clip-rule="evenodd" fill="#FFF9F5" d="M184.069,266.513c1.543,0.189-1.86-0.232-1.972,1.259
			c-0.045,0.595,3.403,2.766,3.235,3.572c-1.297,6.228-4.942,17.99-3.239,20.993l1.667,2.941l4.176-14.374l2.325-8.005
			C191.045,270.197,188.634,265.629,184.069,266.513z"/>
		<path fill-rule="evenodd" clip-rule="evenodd" fill="#FFFFFF" d="M184.27,334.45c0.976,0,1.766,0.789,1.766,1.764
			c0,0.976-0.79,1.768-1.766,1.768c-0.975,0-1.765-0.792-1.765-1.768C182.505,335.239,183.295,334.45,184.27,334.45z"/>
		<path fill-rule="evenodd" clip-rule="evenodd" fill="#FFFFFF" d="M196.382,329.103c0.976,0,1.766,0.792,1.766,1.765
			c0,0.976-0.79,1.767-1.766,1.767c-0.975,0-1.766-0.791-1.766-1.767C194.616,329.895,195.406,329.103,196.382,329.103z"/>
		<path fill-rule="evenodd" clip-rule="evenodd" fill="#3F2B28" d="M339.758,357.983c-0.376-0.963,0.098-2.046,1.06-2.421
			c0.961-0.375,2.045,0.1,2.421,1.06c0.021,0.054,7.219,18.792,14.826,21.959c0.952,0.396,1.404,1.491,1.008,2.444
			c-0.396,0.952-1.489,1.404-2.442,1.008C347.52,378.239,339.779,358.039,339.758,357.983z"/>
		<path fill-rule="evenodd" clip-rule="evenodd" fill="#FFFFFF" d="M301.85,252.77c0.364-0.184,0.51-0.631,0.325-0.996
			c-0.186-0.363-0.631-0.508-0.996-0.324c-0.035,0.018-12.8,6.264-9.935,19.774c1.355,6.387,1.777,11.662,1.09,15.814
			c-0.668,4.034-2.393,7.007-5.343,8.912c-0.344,0.22-0.443,0.679-0.223,1.022c0.22,0.345,0.68,0.444,1.022,0.222
			c3.326-2.147,5.264-5.454,6.001-9.918c0.719-4.346,0.291-9.798-1.099-16.358C290.066,258.538,301.816,252.787,301.85,252.77z"/>
		<path fill-rule="evenodd" clip-rule="evenodd" fill="#FFFFFF" d="M306.465,254.209c-0.259-0.316-0.725-0.364-1.04-0.107
			c-0.317,0.258-0.365,0.723-0.107,1.041c0.02,0.023,6.859,8.302,4.081,19.956c-1.113,4.674-3.068,8.069-4.855,11.178
			c-2.836,4.928-5.273,9.164-3.637,16.49c0.088,0.398,0.482,0.648,0.881,0.563c0.398-0.09,0.649-0.483,0.561-0.882
			c-1.51-6.77,0.795-10.775,3.475-15.436c1.844-3.205,3.859-6.706,5.018-11.57C313.789,263.078,306.484,254.235,306.465,254.209z"/>
		<path fill-rule="evenodd" clip-rule="evenodd" fill="#FFFFFF" d="M301.303,298.565c-0.976,0-1.767,0.792-1.767,1.767
			c0,0.973,0.791,1.765,1.767,1.765c0.974,0,1.764-0.792,1.764-1.765C303.066,299.356,302.276,298.565,301.303,298.565z"/>
		<path fill-rule="evenodd" clip-rule="evenodd" fill="#FFFFFF" d="M289.189,293.218c-0.976,0-1.766,0.791-1.766,1.767
			c0,0.974,0.79,1.765,1.766,1.765c0.975,0,1.766-0.791,1.766-1.765C290.955,294.009,290.164,293.218,289.189,293.218z"/>
		<path fill-rule="evenodd" clip-rule="evenodd" fill="#F5AC83" d="M166.457,382.876c6.868-0.528,6.472-2.111,12.02-5.944
			c5.548-3.828,8.85-4.49,7.528-1.32c-1.32,3.172-3.565,5.945-3.565,5.945s2.134,0.438,6.095-0.057
			c4.189-0.526,10.25-1.959,11.472-0.735c2.377,2.375-3.963,5.018-5.02,5.413c-1.057,0.396,6.341-2.51,5.283,1.982
			c-0.445,1.892-6.468,4.374-4.926,3.74c5.406-2.219,4.451,3.856-4.055,6.959c-6.341,2.31-10.963,1.981-17.436,0.263
			c-6.472-1.716-12.02-2.773-12.944-3.697c-0.924-0.925-2.772-12.682-2.772-12.682L166.457,382.876z"/>
		<path fill-rule="evenodd" clip-rule="evenodd" fill="#EE9073" d="M166.457,382.876c2.462-0.189,3.991-0.516,5.194-1.028
			c-0.727,7.303-2.639,12.673,5.877,15.681c5.457,1.929,10.812,1.614,15.637,0.544c-0.579,0.276-1.204,0.542-1.876,0.787
			c-6.341,2.31-10.963,1.981-17.436,0.263c-6.472-1.716-12.02-2.773-12.944-3.697c-0.924-0.925-2.772-12.682-2.772-12.682
			L166.457,382.876z"/>
		<path fill-rule="evenodd" clip-rule="evenodd" fill="#FFF9F5" d="M94.646,343.875c-7.402,32.973,41.798,54.251,70.674,57.464
			c3.202-4.515,6.335-16.52,3.65-21.019c-7.973-3.003-26.976-9.568-38.007-18.951c-17.215-14.642,9.208-38.763,11.334-51.193
			c1.385-8.115-1.856-24.221-9.105-29.703C121.398,271.551,96.427,335.939,94.646,343.875z"/>
		<g>
			<path fill-rule="evenodd" clip-rule="evenodd" fill="#FBD6BF" d="M129.677,360.169c-14.522-14.729,10.552-37.895,12.62-49.993
				c0.977-5.718-0.345-15.4-3.746-22.54c1.611,14.435-8.598,30.592-15.373,44.577C117.018,344.933,121.77,353.765,129.677,360.169z"
				/>
			<path fill-rule="evenodd" clip-rule="evenodd" fill="#FBD6BF" d="M95.674,339.92c-0.401,1.376-0.747,2.701-1.028,3.955
				c-7.402,32.973,41.798,54.251,70.674,57.464c0.719-1.014,1.434-2.405,2.081-4.007c-6.5-0.506-17.175-2.508-33.655-8.588
				C110.165,380.047,96.063,366.116,95.674,339.92z"/>
		</g>
		<path fill-rule="evenodd" clip-rule="evenodd" fill="#F5AC83" d="M190.23,239.097c-1.571-0.955-9.42-3.48-11.122-2.98
			c-0.574,0.17-0.787,1.836,0.315,2.591c2.549,1.743,5.939,3.227,6.656,3.557c0.84,0.388-1.337-0.49-4.053-0.742
			c-3.886-0.36-5.113-1.112-5.477,0.369c-0.716,2.914,6.838,4.281,7.8,4.58s-8.159-1.856-6.987,2.094
			c0.494,1.664,6.969,3.037,5.561,2.554c-4.936-1.7-8.013,1.249,2.454,4.244c1.694,0.483,5.628,6.06,8.506,8.2
			c3.216,2.393,5.981,1.999,8.206,3.294c1.721,1.001,3.274,4.024,3.499,3.772c0.776-0.871,2.489-8.064,2.489-8.064
			c-1.515-2.78-2.898-7.893-5.866-12.031C198.482,245.333,194.435,241.653,190.23,239.097z"/>
		<path fill-rule="evenodd" clip-rule="evenodd" fill="#EE9073" d="M179.956,253.239c1.111,0.661,2.86,1.392,5.423,2.124
			c1.694,0.483,5.628,6.06,8.506,8.2c3.216,2.393,5.981,1.999,8.206,3.294c1.186,0.69,2.292,2.336,2.939,3.215
			c0.359-0.245,0.738-0.48,1.145-0.692c0.833-2.314,1.904-6.815,1.904-6.815c-0.855-1.567-1.667-3.876-2.744-6.335
			c-0.523,0.492-1.154,1.11-1.92,1.89c-3.5,3.567-8.783,3.7-12.416-0.593C187.557,253.456,186.012,255.083,179.956,253.239z"/>
		<path fill-rule="evenodd" clip-rule="evenodd" fill="#FFF9F5" d="M197.113,265.371c2.012-2.03,7.326-7.263,9.479-8.156
			c0,0,0.719-0.228,1.339,0.066c6.276,2.965,36.228,28.911,48.63,49.814c7.574,12.766,6.449,23.156-4.332,26.728
			c-16.734,2.694-42.643-49.656-54.781-66.007C197.146,267.411,195.973,266.522,197.113,265.371z"/>
		<path fill-rule="evenodd" clip-rule="evenodd" fill="#FBD6BF" d="M148.51,263.443c-1.578,0.661-2.589,1.613-2.504,2.73
			c0.083,1.1,1.233,2.354,3.953,3.642c1.266-1.371,2.018-3.156,2.433-5.192c-0.007-0.036-0.018-0.069-0.03-0.1
			c-0.053-0.128-0.23-0.258-0.511-0.386C151.203,263.847,150.005,263.576,148.51,263.443z"/>
	</g>
</g>
</svg>
